<svg width="24" height="24" viewBox="0 0 24 24" fill="none" xmlns="http://www.w3.org/2000/svg">
<path d="M13.2804 12.5303L5.78036 20.0303C5.63971 20.171 5.44894 20.25 5.25002 20.25C5.0511 20.25 4.86033 20.171 4.71968 20.0303C4.57902 19.8897 4.5 19.6989 4.5 19.5C4.5 19.3011 4.57902 19.1103 4.71968 18.9697L11.6893 12L4.71968 5.03034C4.57902 4.88968 4.5 4.69891 4.5 4.5C4.5 4.30108 4.57902 4.11031 4.71968 3.96965C4.86033 3.829 5.0511 3.74998 5.25002 3.74998C5.44894 3.74998 5.63971 3.829 5.78036 3.96965L13.2804 11.4697C13.35 11.5393 13.4053 11.622 13.443 11.713C13.4806 11.804 13.5 11.9015 13.5 12C13.5 12.0985 13.4806 12.196 13.443 12.287C13.4053 12.378 13.35 12.4607 13.2804 12.5303ZM20.7804 11.4697L13.2804 3.96965C13.1397 3.829 12.9489 3.74998 12.75 3.74998C12.5511 3.74998 12.3603 3.829 12.2197 3.96965C12.079 4.11031 12 4.30108 12 4.5C12 4.69891 12.079 4.88968 12.2197 5.03034L19.1893 12L12.2197 18.9697C12.15 19.0393 12.0948 19.122 12.0571 19.213C12.0194 19.304 12 19.4015 12 19.5C12 19.5985 12.0194 19.696 12.0571 19.787C12.0948 19.878 12.15 19.9607 12.2197 20.0303C12.2893 20.1 12.372 20.1552 12.463 20.1929C12.554 20.2306 12.6515 20.25 12.75 20.25C12.8485 20.25 12.946 20.2306 13.037 20.1929C13.128 20.1552 13.2107 20.1 13.2804 20.0303L20.7804 12.5303C20.85 12.4607 20.9053 12.378 20.943 12.287C20.9806 12.196 21 12.0985 21 12C21 11.9015 20.9806 11.804 20.943 11.713C20.9053 11.622 20.85 11.5393 20.7804 11.4697Z" fill="#171717"/>
</svg>
