<svg width="24" height="24" viewBox="0 0 24 24" fill="none" xmlns="http://www.w3.org/2000/svg">
<path d="M9.74988 18.375C9.60211 18.3752 9.45575 18.3462 9.31922 18.2896C9.18269 18.2331 9.05868 18.1501 8.95432 18.0455L3.70432 12.7959C3.49428 12.5848 3.37656 12.2989 3.37695 12.0011C3.37735 11.7033 3.49584 11.4177 3.70643 11.2071C3.91703 10.9965 4.20255 10.878 4.50039 10.8776C4.79823 10.8772 5.08408 10.9949 5.29526 11.2049L9.74988 15.659L19.4543 5.955C19.6659 5.74686 19.9511 5.63075 20.2479 5.63196C20.5447 5.63316 20.8289 5.7516 21.0388 5.96145C21.2487 6.17131 21.3671 6.45559 21.3683 6.75237C21.3695 7.04914 21.2534 7.33438 21.0453 7.54594L10.5453 18.0456C10.4409 18.1502 10.3169 18.2331 10.1804 18.2896C10.0439 18.3462 9.89762 18.3752 9.74988 18.375Z" fill="black"/>
</svg>
