<svg width="24" height="24" viewBox="0 0 24 24" fill="none" xmlns="http://www.w3.org/2000/svg">
<path d="M20.9992 3.74944V17.2495C20.9992 17.4484 20.9202 17.6392 20.7795 17.7799C20.6389 17.9205 20.4481 17.9995 20.2492 17.9995C20.0503 17.9995 19.8595 17.9205 19.7189 17.7799C19.5782 17.6392 19.4992 17.4484 19.4992 17.2495V4.49953H6.74854C6.54962 4.49953 6.35886 4.42052 6.21821 4.27986C6.07755 4.13921 5.99854 3.94845 5.99854 3.74953C5.99854 3.55062 6.07755 3.35986 6.21821 3.2192C6.35886 3.07855 6.54962 2.99953 6.74854 2.99953H20.2492C20.4481 2.99953 20.6389 3.07855 20.7795 3.2192C20.9202 3.35986 20.9992 3.55062 20.9992 3.74953V3.74944ZM17.9992 6.74953V20.2495C17.9992 20.4484 17.9202 20.6392 17.7795 20.7799C17.6389 20.9205 17.4481 20.9995 17.2492 20.9995H3.74854C3.54962 20.9995 3.35886 20.9205 3.21821 20.7799C3.07755 20.6392 2.99854 20.4484 2.99854 20.2495V6.74953C2.99854 6.55062 3.07755 6.35986 3.21821 6.2192C3.35886 6.07855 3.54962 5.99953 3.74854 5.99953H17.2492C17.4481 5.99953 17.6389 6.07855 17.7795 6.2192C17.9202 6.35986 17.9992 6.55062 17.9992 6.74953ZM16.4992 7.49953H4.49854V19.4995H16.4992V7.49953Z" fill="black"/>
</svg>
