<svg width="24" height="24" viewBox="0 0 24 24" fill="none" xmlns="http://www.w3.org/2000/svg">
<path d="M8.99995 20.625C8.77745 20.625 8.55995 20.559 8.37496 20.4354C8.18996 20.3118 8.04578 20.1361 7.96063 19.9305C7.87549 19.725 7.85321 19.4988 7.89661 19.2805C7.94002 19.0623 8.04716 18.8619 8.20448 18.7045L14.9089 12L8.20448 5.29547C7.99634 5.08391 7.88023 4.79868 7.88144 4.5019C7.88264 4.20512 8.00107 3.92084 8.21093 3.71098C8.42079 3.50113 8.70507 3.3827 9.00185 3.38149C9.29862 3.38028 9.58386 3.49639 9.79542 3.70453L17.2954 11.2045C17.5064 11.4155 17.6249 11.7016 17.6249 12C17.6249 12.2984 17.5064 12.5845 17.2954 12.7955L9.79542 20.2955C9.69107 20.4001 9.56708 20.4831 9.43057 20.5396C9.29405 20.5962 9.14771 20.6252 8.99995 20.625Z" fill="#171717"/>
</svg>
