<svg width="24" height="24" viewBox="0 0 24 24" fill="none" xmlns="http://www.w3.org/2000/svg">
<path d="M19.2804 18.9697C19.421 19.1103 19.5 19.3011 19.5 19.5C19.5 19.6989 19.421 19.8897 19.2804 20.0303C19.1397 20.171 18.9489 20.25 18.75 20.25C18.5511 20.25 18.3603 20.171 18.2197 20.0303L10.7197 12.5303C10.65 12.4607 10.5948 12.378 10.5571 12.287C10.5194 12.196 10.5 12.0985 10.5 12C10.5 11.9015 10.5194 11.804 10.5571 11.713C10.5948 11.622 10.65 11.5393 10.7197 11.4697L18.2197 3.96965C18.3603 3.829 18.5511 3.74998 18.75 3.74998C18.9489 3.74998 19.1397 3.829 19.2804 3.96965C19.421 4.11031 19.5 4.30108 19.5 4.5C19.5 4.69891 19.421 4.88968 19.2804 5.03034L12.3107 12L19.2804 18.9697ZM4.81071 12L11.7804 5.03034C11.921 4.88968 12 4.69891 12 4.5C12 4.30108 11.921 4.11031 11.7804 3.96965C11.6397 3.829 11.4489 3.74998 11.25 3.74998C11.0511 3.74998 10.8603 3.829 10.7197 3.96965L3.21968 11.4697C3.15004 11.5393 3.09479 11.622 3.05709 11.713C3.0194 11.804 3 11.9015 3 12C3 12.0985 3.0194 12.196 3.05709 12.287C3.09479 12.378 3.15004 12.4607 3.21968 12.5303L10.7197 20.0303C10.8603 20.171 11.0511 20.25 11.25 20.25C11.4489 20.25 11.6397 20.171 11.7804 20.0303C11.921 19.8897 12 19.6989 12 19.5C12 19.3011 11.921 19.1103 11.7804 18.9697L4.81071 12Z" fill="#171717"/>
</svg>
