<svg width="24" height="24" viewBox="0 0 24 24" fill="none" xmlns="http://www.w3.org/2000/svg">
<path d="M14.9999 20.625C14.8522 20.6252 14.7058 20.5962 14.5693 20.5396C14.4328 20.4831 14.3088 20.4001 14.2045 20.2955L6.70448 12.7955C6.49352 12.5845 6.375 12.2984 6.375 12C6.375 11.7016 6.49352 11.4155 6.70448 11.2045L14.2045 3.70453C14.416 3.49639 14.7013 3.38028 14.9981 3.38149C15.2948 3.3827 15.5791 3.50113 15.789 3.71098C15.9988 3.92084 16.1173 4.20512 16.1185 4.5019C16.1197 4.79868 16.0036 5.08391 15.7954 5.29547L9.09098 12L15.7954 18.7045C15.9527 18.8619 16.0599 19.0623 16.1033 19.2805C16.1467 19.4988 16.1244 19.725 16.0393 19.9305C15.9541 20.1361 15.8099 20.3118 15.6249 20.4354C15.4399 20.559 15.2224 20.625 14.9999 20.625Z" fill="#171717"/>
</svg>
