<svg width="24" height="24" viewBox="0 0 24 24" fill="none" xmlns="http://www.w3.org/2000/svg">
<path d="M15 20.25C14.9015 20.2501 14.8039 20.2308 14.7129 20.1931C14.6219 20.1554 14.5393 20.1001 14.4697 20.0303L6.96968 12.5303C6.90004 12.4607 6.84479 12.378 6.80709 12.287C6.7694 12.196 6.75 12.0985 6.75 12C6.75 11.9015 6.7694 11.804 6.80709 11.713C6.84479 11.622 6.90004 11.5393 6.96968 11.4697L14.4697 3.96966C14.6103 3.829 14.8011 3.74998 15 3.74998C15.1989 3.74998 15.3897 3.829 15.5304 3.96966C15.671 4.11031 15.75 4.30108 15.75 4.5C15.75 4.69892 15.671 4.88969 15.5304 5.03034L8.56071 12L15.5304 18.9697C15.6353 19.0745 15.7067 19.2082 15.7356 19.3537C15.7646 19.4992 15.7497 19.65 15.693 19.787C15.6362 19.9241 15.5401 20.0412 15.4167 20.1236C15.2934 20.206 15.1484 20.25 15 20.25Z" fill="#171717"/>
</svg>
