<svg width="24" height="24" viewBox="0 0 24 24" fill="none" xmlns="http://www.w3.org/2000/svg">
<path d="M20.25 4.5H3.75003C3.35234 4.50045 2.97107 4.65863 2.68986 4.93983C2.40865 5.22104 2.25047 5.60231 2.25003 6V20.8898C2.2483 21.1758 2.32916 21.4562 2.4829 21.6974C2.63665 21.9386 2.85673 22.1303 3.11675 22.2495C3.3162 22.3431 3.53375 22.3918 3.75406 22.3922C4.10626 22.3915 4.44682 22.266 4.71528 22.038L7.6924 19.5353L7.78915 19.5001H20.25C20.6477 19.4996 21.029 19.3415 21.3102 19.0603C21.5914 18.7791 21.7496 18.3978 21.75 18.0001V6C21.7496 5.60231 21.5914 5.22104 21.3102 4.93983C21.029 4.65863 20.6477 4.50045 20.25 4.5ZM20.25 18H7.65678C7.56916 18 7.48222 18.0154 7.3999 18.0454L7.05434 18.1714C6.97204 18.2014 6.89564 18.2455 6.82859 18.3019L3.75003 20.8898V6H20.25V18ZM8.25003 10.5C8.25003 10.3011 8.32904 10.1103 8.4697 9.96967C8.61035 9.82902 8.80112 9.75 9.00003 9.75H15C15.1989 9.75 15.3897 9.82902 15.5304 9.96967C15.671 10.1103 15.75 10.3011 15.75 10.5C15.75 10.6989 15.671 10.8897 15.5304 11.0303C15.3897 11.171 15.1989 11.25 15 11.25H9.00003C8.80112 11.25 8.61035 11.171 8.4697 11.0303C8.32904 10.8897 8.25003 10.6989 8.25003 10.5ZM8.25003 13.5C8.25003 13.3011 8.32904 13.1103 8.4697 12.9697C8.61035 12.829 8.80112 12.75 9.00003 12.75H15C15.1989 12.75 15.3897 12.829 15.5304 12.9697C15.671 13.1103 15.75 13.3011 15.75 13.5C15.75 13.6989 15.671 13.8897 15.5304 14.0303C15.3897 14.171 15.1989 14.25 15 14.25H9.00003C8.80112 14.25 8.61035 14.171 8.4697 14.0303C8.32904 13.8897 8.25003 13.6989 8.25003 13.5Z" fill="#171717"/>
</svg>
