<svg width="24" height="24" viewBox="0 0 24 24" fill="none" xmlns="http://www.w3.org/2000/svg">
<path d="M9.00003 20.25C8.85169 20.25 8.70668 20.206 8.58334 20.1236C8.45999 20.0412 8.36386 19.9241 8.30709 19.787C8.25032 19.65 8.23547 19.4992 8.26441 19.3537C8.29335 19.2082 8.36479 19.0745 8.46968 18.9697L15.4393 12L8.46968 5.03034C8.32903 4.88969 8.25001 4.69892 8.25001 4.5C8.25001 4.30108 8.32903 4.11031 8.46968 3.96966C8.61034 3.829 8.80111 3.74998 9.00003 3.74998C9.19895 3.74998 9.38972 3.829 9.53037 3.96966L17.0304 11.4697C17.1 11.5393 17.1553 11.622 17.193 11.713C17.2307 11.804 17.2501 11.9015 17.2501 12C17.2501 12.0985 17.2307 12.196 17.193 12.287C17.1553 12.378 17.1 12.4607 17.0304 12.5303L9.53037 20.0303C9.4608 20.1001 9.37813 20.1554 9.28712 20.1931C9.19611 20.2308 9.09854 20.2501 9.00003 20.25Z" fill="#171717"/>
</svg>
