<svg width="24" height="24" viewBox="0 0 24 24" fill="none" xmlns="http://www.w3.org/2000/svg">
<path d="M21.7492 3.37444V16.4995C21.7492 16.7979 21.6307 17.0841 21.4197 17.295C21.2087 17.506 20.9226 17.6245 20.6242 17.6245C20.3258 17.6245 20.0397 17.506 19.8287 17.295C19.6177 17.0841 19.4992 16.7979 19.4992 16.4995V4.49953H7.49854C7.20017 4.49953 6.91402 4.38101 6.70304 4.17003C6.49206 3.95905 6.37354 3.6729 6.37354 3.37453C6.37354 3.07617 6.49206 2.79002 6.70304 2.57904C6.91402 2.36806 7.20017 2.24953 7.49854 2.24953H20.6242C20.9226 2.24953 21.2087 2.36806 21.4197 2.57904C21.6307 2.79002 21.7492 3.07617 21.7492 3.37453V3.37444ZM17.9992 7.12453V20.2495C17.9992 20.5479 17.8807 20.8341 17.6697 21.045C17.4587 21.256 17.1726 21.3745 16.8742 21.3745H3.74854C3.45017 21.3745 3.16402 21.256 2.95304 21.045C2.74206 20.8341 2.62354 20.5479 2.62354 20.2495V7.12453C2.62354 6.82617 2.74206 6.54002 2.95304 6.32904C3.16402 6.11806 3.45017 5.99953 3.74854 5.99953H16.8742C17.1726 5.99953 17.4587 6.11806 17.6697 6.32904C17.8807 6.54002 17.9992 6.82617 17.9992 7.12453ZM15.7492 8.24953H4.87354V19.1245H15.7492V8.24953Z" fill="black"/>
</svg>
