<svg width="24" height="24" viewBox="0 0 24 24" fill="none" xmlns="http://www.w3.org/2000/svg">
<path d="M19.5 3H4.5C4.1023 3.0004 3.721 3.15856 3.43978 3.43978C3.15856 3.721 3.0004 4.1023 3 4.5V19.5C3.0004 19.8977 3.15856 20.279 3.43978 20.5602C3.721 20.8414 4.1023 20.9996 4.5 21H19.5C19.8977 20.9996 20.279 20.8414 20.5602 20.5602C20.8414 20.279 20.9996 19.8977 21 19.5V4.5C20.9996 4.1023 20.8414 3.721 20.5602 3.43978C20.279 3.15856 19.8977 3.0004 19.5 3ZM16.6429 10.292L11.1424 15.542C11.003 15.6755 10.8175 15.75 10.6245 15.75C10.4316 15.75 10.2461 15.6755 10.1067 15.542L7.35722 12.917C7.28485 12.8493 7.22663 12.7679 7.18592 12.6775C7.14521 12.5872 7.12282 12.4896 7.12004 12.3906C7.11727 12.2915 7.13416 12.1929 7.16975 12.1004C7.20534 12.0079 7.25891 11.9234 7.32738 11.8517C7.39584 11.7801 7.47783 11.7227 7.5686 11.6829C7.65938 11.6432 7.75714 11.6218 7.85623 11.6201C7.95531 11.6183 8.05376 11.6363 8.14587 11.6728C8.23799 11.7094 8.32194 11.7638 8.39288 11.833L10.6246 13.9629L15.6072 9.20794C15.6783 9.13943 15.7622 9.08564 15.8541 9.04965C15.9461 9.01367 16.0442 8.99619 16.1429 8.99822C16.2416 9.00026 16.3389 9.02177 16.4293 9.06152C16.5196 9.10127 16.6012 9.15848 16.6694 9.22986C16.7376 9.30124 16.7911 9.38538 16.8266 9.47746C16.8622 9.56954 16.8793 9.66774 16.8768 9.76643C16.8743 9.86512 16.8524 9.96235 16.8123 10.0525C16.7721 10.1427 16.7146 10.2241 16.6429 10.292Z" fill="#171717"/>
</svg>
