<svg width="24" height="24" viewBox="0 0 24 24" fill="none" xmlns="http://www.w3.org/2000/svg">
<path d="M5.05492 3.24563C4.98867 3.17274 4.90871 3.11362 4.81961 3.07164C4.7305 3.02966 4.63401 3.00564 4.53562 3.00095C4.33692 2.99148 4.1426 3.06134 3.99541 3.19514C3.92252 3.26139 3.8634 3.34136 3.82142 3.43046C3.77944 3.51956 3.75542 3.61606 3.75073 3.71444C3.74126 3.91314 3.81112 4.10746 3.94492 4.25466L5.7483 6.23841C2.34367 8.32837 0.879673 11.5491 0.81461 11.6957C0.772011 11.7916 0.75 11.8954 0.75 12.0003C0.75 12.1052 0.772011 12.209 0.81461 12.3049C0.84761 12.3789 1.64149 14.1398 3.40727 15.9053C5.75889 18.2566 8.7302 19.4995 12 19.4995C13.6803 19.5093 15.3437 19.1632 16.8806 18.484L18.945 20.7548C19.0113 20.8276 19.0912 20.8868 19.1803 20.9287C19.2694 20.9707 19.3659 20.9947 19.4643 20.9994C19.5627 21.0041 19.661 20.9894 19.7537 20.9561C19.8464 20.9227 19.9316 20.8715 20.0045 20.8052C20.0774 20.739 20.1365 20.659 20.1785 20.5699C20.2205 20.4808 20.2445 20.3843 20.2492 20.2859C20.2539 20.1875 20.2392 20.0892 20.2058 19.9965C20.1725 19.9038 20.1213 19.8186 20.055 19.7457L5.05492 3.24563ZM9.49173 10.3561L13.3987 14.6538C12.8105 14.9643 12.1357 15.0704 11.4806 14.9555C10.8255 14.8406 10.2272 14.5111 9.77977 14.0189C9.33236 13.5268 9.06127 12.8999 9.00912 12.2368C8.95698 11.5737 9.12675 10.9121 9.49173 10.3561ZM11.9999 17.9994C9.1143 17.9994 6.59298 16.9508 4.50602 14.8826C3.64847 14.0316 2.9187 13.0608 2.33945 12.0006C2.78299 11.1754 4.19524 8.86406 6.77739 7.37044L8.46114 9.22256C7.80423 10.0588 7.46478 11.1007 7.50303 12.1634C7.54127 13.2261 7.95474 14.2409 8.67006 15.0278C9.38539 15.8146 10.3563 16.3226 11.4106 16.4617C12.4649 16.6007 13.5343 16.3618 14.4292 15.7873L15.8092 17.3054C14.5934 17.7709 13.3017 18.0063 11.9999 17.9994ZM23.1852 12.3048C23.1459 12.3934 22.1965 14.4961 20.0574 16.4118C19.9088 16.5421 19.7149 16.6085 19.5177 16.5966C19.3205 16.5848 19.1359 16.4955 19.0041 16.3484C18.8723 16.2012 18.8038 16.0079 18.8137 15.8106C18.8235 15.6133 18.9109 15.4278 19.0567 15.2945C20.1038 14.3507 20.9842 13.2369 21.6606 12C21.0814 10.9394 20.3515 9.9683 19.4938 9.117C17.4069 7.04831 14.8855 5.99944 11.9999 5.99944C11.3917 5.99861 10.7845 6.04796 10.1845 6.147C10.0869 6.1641 9.987 6.16172 9.89041 6.14C9.79382 6.11828 9.70249 6.07765 9.62167 6.02046C9.54086 5.96326 9.47217 5.89064 9.41957 5.80677C9.36697 5.72289 9.33149 5.62944 9.31518 5.53179C9.29888 5.43414 9.30207 5.33422 9.32457 5.23781C9.34707 5.1414 9.38844 5.0504 9.44628 4.97005C9.50413 4.8897 9.57731 4.82161 9.66161 4.76969C9.7459 4.71776 9.83964 4.68304 9.93742 4.66753C10.6191 4.55488 11.309 4.49866 11.9999 4.49944C15.2697 4.49944 18.2411 5.74256 20.5928 8.09447C22.3585 9.86025 23.1523 11.6214 23.1853 11.6956C23.2279 11.7915 23.2499 11.8953 23.2499 12.0002C23.2499 12.1051 23.2279 12.2089 23.1853 12.3048H23.1852ZM12.5652 9.05316C12.371 9.01478 12.1998 8.90112 12.089 8.73698C11.9782 8.57285 11.9368 8.37156 11.9738 8.17703C12.0109 7.9825 12.1234 7.81052 12.2868 7.69862C12.4501 7.58671 12.6511 7.54396 12.8459 7.57969C13.8017 7.76528 14.672 8.25479 15.3269 8.97525C15.9819 9.69571 16.3864 10.6085 16.4803 11.5777C16.4988 11.7757 16.4378 11.973 16.3108 12.1261C16.1838 12.2792 16.0012 12.3756 15.8032 12.3941C15.7797 12.3963 15.7561 12.3974 15.7326 12.3974C15.5459 12.3971 15.366 12.3273 15.228 12.2014C15.0901 12.0756 15.0041 11.9029 14.9867 11.717C14.9241 11.0713 14.6546 10.4631 14.2182 9.98303C13.7819 9.503 13.2021 9.17684 12.5652 9.05316Z" fill="#171717"/>
</svg>
