<svg width="24" height="24" viewBox="0 0 24 24" fill="none" xmlns="http://www.w3.org/2000/svg">
<path d="M23.1853 11.6953C23.1524 11.6212 22.3585 9.86006 20.5929 8.09437C18.2412 5.74247 15.2697 4.49925 12 4.49925C8.7303 4.49925 5.7588 5.74237 3.40717 8.09428C1.64149 9.86006 0.847517 11.6213 0.81461 11.6954C0.772011 11.7913 0.75 11.8951 0.75 12C0.75 12.1049 0.772011 12.2087 0.81461 12.3046C0.84761 12.3787 1.64149 14.1395 3.40727 15.905C5.75889 18.2563 8.7302 19.4992 12 19.4992C15.2698 19.4992 18.2411 18.2563 20.5928 15.905C22.3585 14.1395 23.1524 12.3787 23.1854 12.3046C23.228 12.2087 23.25 12.1049 23.25 12C23.25 11.8951 23.228 11.7913 23.1854 11.6954L23.1853 11.6953ZM12 17.9993C9.11439 17.9993 6.59308 16.9507 4.50611 14.8825C3.64843 14.0314 2.91857 13.0604 2.33927 12C2.91854 10.9393 3.6484 9.9682 4.50611 9.11681C6.59308 7.04812 9.11448 5.99925 12 5.99925C14.8855 5.99925 17.407 7.04812 19.4939 9.11681C20.3517 9.96818 21.0816 10.9393 21.6609 12C20.9846 13.2609 18.0405 17.9991 12 17.9991V17.9993ZM12 7.5C11.11 7.5 10.24 7.76392 9.49995 8.25839C8.75993 8.75285 8.18315 9.45566 7.84256 10.2779C7.50196 11.1002 7.41285 12.005 7.58648 12.8779C7.76012 13.7508 8.1887 14.5526 8.81804 15.182C9.44737 15.8113 10.2492 16.2399 11.1221 16.4135C11.995 16.5872 12.8998 16.4981 13.7221 16.1575C14.5444 15.8169 15.2472 15.2401 15.7416 14.5001C16.2361 13.76 16.5 12.89 16.5 12C16.4987 10.8069 16.0241 9.66312 15.1805 8.8195C14.3369 7.97587 13.1931 7.50134 12 7.5ZM12 15C11.4067 15 10.8267 14.8241 10.3333 14.4944C9.83996 14.1648 9.45544 13.6962 9.22838 13.148C9.00132 12.5999 8.94191 11.9967 9.05766 11.4147C9.17342 10.8328 9.45914 10.2982 9.8787 9.87868C10.2983 9.45912 10.8328 9.1734 11.4147 9.05764C11.9967 8.94189 12.5999 9.0013 13.1481 9.22836C13.6962 9.45542 14.1648 9.83994 14.4944 10.3333C14.8241 10.8266 15 11.4067 15 12C14.9991 12.7954 14.6827 13.5579 14.1203 14.1203C13.5579 14.6827 12.7954 14.9991 12 15Z" fill="#171717"/>
</svg>
