<svg width="24" height="24" viewBox="0 0 24 24" fill="none" xmlns="http://www.w3.org/2000/svg">
<path d="M22.2619 9.77503C22.2393 9.67077 22.1947 9.57253 22.1311 9.48688C22.0675 9.40122 21.9863 9.33013 21.893 9.27835L19.664 8.04103C19.5406 7.80175 19.4061 7.56834 19.2609 7.34156L19.3038 4.79035C19.3056 4.68364 19.2846 4.57778 19.2422 4.47984C19.1998 4.3819 19.137 4.29414 19.058 4.22241C17.9483 3.21305 16.6336 2.45525 15.204 2.00081C15.1024 1.96831 14.995 1.95786 14.8891 1.97015C14.7831 1.98243 14.681 2.01718 14.5895 2.07206L12.4034 3.38353C12.1344 3.37076 11.865 3.37057 11.5961 3.38297L9.40824 2.07019C9.31672 2.01527 9.21455 1.98051 9.10852 1.96822C9.0025 1.95594 8.89508 1.96641 8.79343 1.99894C7.36444 2.4554 6.05086 3.21502 4.94246 4.22588C4.86349 4.29761 4.80072 4.38537 4.75837 4.48329C4.71601 4.58121 4.69503 4.68704 4.69684 4.79372L4.73977 7.34278C4.59424 7.56931 4.45934 7.8025 4.33552 8.0416L2.10465 9.28003C2.01135 9.33185 1.93019 9.40297 1.86657 9.48866C1.80296 9.57434 1.75835 9.67261 1.73574 9.77691C1.4165 11.2426 1.41753 12.76 1.73874 14.2253C1.76138 14.3296 1.80599 14.4278 1.86961 14.5134C1.93323 14.5991 2.01438 14.6702 2.10765 14.7219L4.33665 15.9593C4.4601 16.1985 4.59462 16.4319 4.73977 16.6587L4.69684 19.2099C4.69504 19.3166 4.71604 19.4225 4.75843 19.5204C4.80082 19.6184 4.86363 19.7062 4.94265 19.7779C6.05242 20.7872 7.36707 21.545 8.79671 21.9995C8.89831 22.032 9.00566 22.0424 9.11161 22.0301C9.21757 22.0178 9.31968 21.9831 9.41115 21.9282L11.5973 20.6167C11.8661 20.6293 12.1362 20.6296 12.4046 20.6172L14.5924 21.93C14.6839 21.9849 14.7861 22.0197 14.8921 22.032C14.9982 22.0443 15.1056 22.0338 15.2072 22.0013C16.6362 21.5448 17.9498 20.7852 19.0582 19.7743C19.1372 19.7026 19.1999 19.6148 19.2423 19.5169C19.2846 19.419 19.3056 19.3131 19.3038 19.2065L19.2609 16.6574C19.4064 16.4309 19.5413 16.1977 19.6651 15.9586L21.896 14.7202C21.9893 14.6683 22.0705 14.5972 22.1341 14.5115C22.1977 14.4258 22.2423 14.3276 22.2649 14.2233C22.5842 12.7575 22.5832 11.2402 22.2619 9.77485V9.77503ZM20.8638 13.5775L18.7341 14.7598C18.5987 14.835 18.4899 14.9503 18.4226 15.0898C18.2677 15.4109 18.0889 15.72 17.8878 16.0144C17.8002 16.1426 17.7546 16.2949 17.7572 16.4501L17.7982 18.8843C16.9888 19.5696 16.0636 20.1049 15.0661 20.465L12.9773 19.2116C12.8607 19.1417 12.7274 19.1047 12.5914 19.1048C12.5729 19.1048 12.5542 19.1054 12.5356 19.1068C12.1801 19.1332 11.8232 19.1329 11.4677 19.106C11.3129 19.0943 11.1582 19.1309 11.0251 19.2108L8.93743 20.4633C7.93927 20.105 7.01309 19.5713 6.20246 18.8875L6.24352 16.452C6.24611 16.2971 6.20069 16.1452 6.11349 16.0172C5.91289 15.7225 5.73464 15.4132 5.58024 15.0919C5.51296 14.9519 5.40388 14.8362 5.26805 14.7608L3.13955 13.5792C2.95079 12.5356 2.94986 11.4667 3.13684 10.4228L5.26655 9.24056C5.40199 9.16534 5.51081 9.05003 5.57809 8.91047C5.73302 8.58943 5.91177 8.28045 6.11284 7.98609C6.20045 7.85784 6.24608 7.70555 6.24343 7.55025L6.20246 5.11603C7.01187 4.43077 7.9371 3.8955 8.93462 3.53541L11.0234 4.78875C11.1563 4.86836 11.3106 4.90496 11.4651 4.89356C11.8206 4.86714 12.1775 4.86742 12.5329 4.89441C12.6878 4.90616 12.8425 4.86954 12.9756 4.7896L15.0632 3.537C16.0614 3.89537 16.9876 4.42906 17.7982 5.11294L17.7571 7.54838C17.7546 7.70326 17.8 7.85515 17.8872 7.98319C18.0878 8.27788 18.266 8.58718 18.4204 8.9085C18.4877 9.04849 18.5967 9.16416 18.7325 9.23953L20.8611 10.4212C21.0499 11.4648 21.0508 12.5337 20.8638 13.5776V13.5775ZM12.0002 6.75028C10.9619 6.75028 9.94686 7.05819 9.0835 7.63507C8.22014 8.21195 7.54724 9.03188 7.14987 9.99119C6.75251 10.9505 6.64855 12.0061 6.85112 13.0245C7.05369 14.0429 7.55371 14.9784 8.28793 15.7126C9.02216 16.4468 9.95762 16.9468 10.976 17.1494C11.9944 17.352 13.05 17.248 14.0093 16.8506C14.9686 16.4533 15.7886 15.7804 16.3655 14.917C16.9423 14.0537 17.2502 13.0386 17.2502 12.0003C17.2487 10.6084 16.695 9.27395 15.7108 8.28973C14.7266 7.3055 13.3921 6.75187 12.0002 6.75028ZM12.0002 15.7503C11.2586 15.7503 10.5335 15.5303 9.91685 15.1183C9.30017 14.7062 8.81952 14.1206 8.53569 13.4353C8.25187 12.7501 8.1776 11.9961 8.3223 11.2687C8.46699 10.5413 8.82415 9.87308 9.34859 9.34863C9.87304 8.82419 10.5412 8.46703 11.2687 8.32234C11.9961 8.17764 12.7501 8.25191 13.4353 8.53573C14.1205 8.81956 14.7062 9.30021 15.1183 9.91689C15.5303 10.5336 15.7502 11.2586 15.7502 12.0003C15.7491 12.9945 15.3537 13.9477 14.6507 14.6507C13.9476 15.3537 12.9945 15.7492 12.0002 15.7503Z" fill="#171717"/>
</svg>
