<svg width="24" height="24" viewBox="0 0 24 24" fill="none" xmlns="http://www.w3.org/2000/svg">
<path d="M12.0002 6.75019C10.9618 6.75019 9.94677 7.05809 9.08342 7.63497C8.22006 8.21185 7.54715 9.03179 7.14979 9.9911C6.75243 10.9504 6.64847 12.006 6.85104 13.0244C7.05361 14.0428 7.55362 14.9783 8.28785 15.7125C9.02208 16.4467 9.95754 16.9467 10.9759 17.1493C11.9943 17.3519 13.0499 17.2479 14.0092 16.8506C14.9686 16.4532 15.7885 15.7803 16.3654 14.9169C16.9423 14.0536 17.2502 13.0385 17.2502 12.0002C17.2486 10.6083 16.6949 9.27385 15.7107 8.28963C14.7265 7.30541 13.3921 6.75178 12.0002 6.75019ZM12.0002 15.0002C11.4068 15.0002 10.8268 14.8242 10.3335 14.4946C9.8401 14.165 9.45558 13.6964 9.22852 13.1482C9.00146 12.6001 8.94205 11.9969 9.0578 11.4149C9.17356 10.833 9.45928 10.2984 9.87884 9.87887C10.2984 9.45931 10.8329 9.17359 11.4149 9.05783C11.9968 8.94208 12.6 9.00149 13.1482 9.22855C13.6964 9.45561 14.1649 9.84013 14.4946 10.3335C14.8242 10.8268 15.0002 11.4068 15.0002 12.0002C14.9993 12.7956 14.6829 13.5581 14.1205 14.1205C13.5581 14.6829 12.7955 14.9993 12.0002 15.0002ZM22.6285 9.69534C22.5945 9.53897 22.5276 9.39165 22.4322 9.2632C22.3367 9.13476 22.215 9.02815 22.0751 8.9505L19.9442 7.76756C19.8482 7.587 19.746 7.40981 19.6378 7.236L19.6788 4.79662C19.6815 4.63659 19.65 4.47782 19.5865 4.33093C19.5229 4.18404 19.4287 4.0524 19.3102 3.94481C18.1608 2.89932 16.7992 2.11437 15.3184 1.64362C15.166 1.59481 15.005 1.57908 14.846 1.59749C14.6871 1.61591 14.5339 1.66804 14.3967 1.75041L12.3068 3.00441C12.1023 2.99728 11.8977 2.99712 11.6932 3.00394L9.60119 1.74862C9.46393 1.66625 9.31066 1.61413 9.15164 1.59575C8.99262 1.57737 8.8315 1.59315 8.67907 1.64203C7.19899 2.11474 5.83843 2.90145 4.69038 3.94837C4.57193 4.05598 4.4778 4.18761 4.41427 4.33448C4.35073 4.48135 4.31926 4.64009 4.32194 4.80009L4.363 7.23694C4.25469 7.41044 4.15232 7.5875 4.05588 7.76812L1.92279 8.95219C1.7828 9.02987 1.66101 9.13655 1.56556 9.26508C1.4701 9.39361 1.40319 9.54103 1.36929 9.6975C1.03863 11.2156 1.03968 12.7873 1.37238 14.3049C1.40632 14.4613 1.47324 14.6087 1.56868 14.7371C1.66411 14.8656 1.78586 14.9722 1.92579 15.0499L4.05672 16.2327C4.15272 16.4133 4.25485 16.5906 4.3631 16.7644L4.32204 19.2037C4.31935 19.3638 4.35084 19.5225 4.41441 19.6694C4.47798 19.8163 4.57216 19.948 4.69066 20.0556C5.84005 21.101 7.20164 21.886 8.68235 22.3567C8.83476 22.4055 8.99583 22.4212 9.15479 22.4028C9.31376 22.3844 9.46697 22.3323 9.60419 22.25L11.6941 20.996C11.8985 21.003 12.1035 21.0033 12.3077 20.9964L14.3997 22.2517C14.537 22.334 14.6902 22.3861 14.8492 22.4045C15.0083 22.4229 15.1694 22.4072 15.3218 22.3583C16.8019 21.8856 18.1625 21.0989 19.3105 20.052C19.4289 19.9444 19.5231 19.8128 19.5866 19.6659C19.6502 19.519 19.6816 19.3603 19.6789 19.2003L19.6379 16.7633C19.7462 16.5899 19.8486 16.4129 19.945 16.2322L22.0781 15.0482C22.2181 14.9705 22.3398 14.8638 22.4353 14.7353C22.5307 14.6068 22.5976 14.4593 22.6315 14.3029C22.9622 12.7847 22.9612 11.2131 22.6285 9.69534ZM20.5241 13.3373L18.5523 14.432C18.3491 14.5448 18.1858 14.7177 18.0848 14.9271C17.9381 15.2312 17.7688 15.5239 17.5783 15.8028C17.4469 15.9951 17.3784 16.2235 17.3823 16.4564L17.4203 18.7103C16.7236 19.2761 15.9419 19.7284 15.1042 20.0505L13.1703 18.8902C12.9955 18.7852 12.7954 18.7298 12.5915 18.7298C12.5637 18.7298 12.5358 18.7308 12.5078 18.7328C12.1711 18.7578 11.8329 18.7576 11.4962 18.7321C11.2639 18.7144 11.0319 18.7693 10.8322 18.8891L8.8991 20.049C8.06082 19.7285 7.27838 19.2777 6.58066 18.7132L6.61854 16.4584C6.62249 16.226 6.55437 15.9981 6.42354 15.8061C6.23345 15.5269 6.06454 15.2339 5.91822 14.9295C5.81742 14.7195 5.65393 14.5461 5.45032 14.433L3.47932 13.3387C3.33767 12.4525 3.33682 11.5495 3.47679 10.6629L5.44863 9.56822C5.65182 9.45544 5.8151 9.28253 5.91607 9.07322C6.06278 8.76908 6.23206 8.47635 6.4225 8.1975C6.55391 8.00516 6.62237 7.77678 6.61844 7.54387L6.58057 5.28994C7.27726 4.72416 8.05887 4.27188 8.89657 3.94978L10.8305 5.11012C11.0298 5.2297 11.2613 5.28466 11.4931 5.26744C11.8298 5.24247 12.1679 5.24272 12.5046 5.26819C12.7369 5.28605 12.969 5.23117 13.1687 5.11116L15.1017 3.95128C15.94 4.27177 16.7225 4.72256 17.4202 5.28703L17.3823 7.54191C17.3784 7.77427 17.4465 8.00215 17.5773 8.19422C17.7674 8.47338 17.9363 8.76639 18.0826 9.07078C18.1834 9.28074 18.3469 9.45423 18.5506 9.56728L20.5216 10.6614C20.6632 11.5477 20.6641 12.4507 20.5241 13.3373V13.3373Z" fill="#171717"/>
</svg>
