<svg width="24" height="24" viewBox="0 0 24 24" fill="none" xmlns="http://www.w3.org/2000/svg">
<path d="M19.5 21.3749H19.4998L14.9992 21.3743C14.5021 21.3737 14.0256 21.1759 13.6741 20.8244C13.3227 20.4729 13.125 19.9964 13.1244 19.4993V15.3743H10.8744V19.4993C10.8739 19.9963 10.6762 20.4729 10.3247 20.8244C9.97323 21.1759 9.4967 21.3736 8.99963 21.3743L4.50028 21.375C4.25403 21.375 4.01018 21.3266 3.78266 21.2324C3.55515 21.1381 3.34841 21 3.17427 20.8259C3.00013 20.6518 2.862 20.4451 2.76775 20.2176C2.67351 19.9901 2.625 19.7463 2.625 19.5V10.8319C2.6252 10.5706 2.67989 10.3123 2.78557 10.0734C2.89126 9.83449 3.04561 9.62025 3.23878 9.44438L10.738 2.62566C11.0824 2.31029 11.5324 2.13535 11.9993 2.13532C12.4662 2.13528 12.9163 2.31016 13.2607 2.62547L20.7613 9.44447C20.9544 9.62039 21.1087 9.83464 21.2144 10.0735C21.3201 10.3124 21.3748 10.5707 21.375 10.832V19.5C21.375 19.9973 21.1775 20.4742 20.8258 20.8258C20.4742 21.1775 19.9973 21.375 19.5 21.375V21.3749ZM15.3744 19.1243L19.125 19.125V10.9978L11.9994 4.51969L4.875 10.9976V19.1248L8.62444 19.1243V14.9993C8.62501 14.5021 8.82274 14.0256 9.17424 13.6741C9.52575 13.3225 10.0023 13.1248 10.4994 13.1243H13.4994C13.9965 13.1248 14.4731 13.3225 14.8246 13.6741C15.1761 14.0256 15.3739 14.5021 15.3744 14.9993V19.1243Z" fill="#171717"/>
</svg>
