<svg width="24" height="24" viewBox="0 0 24 24" fill="none" xmlns="http://www.w3.org/2000/svg">
<path d="M19.5 20.9999H19.4998L14.9993 20.9993C14.6016 20.9988 14.2204 20.8406 13.9392 20.5594C13.6581 20.2782 13.4999 19.897 13.4994 19.4993V14.9993H10.4994V19.4993C10.499 19.8969 10.3408 20.2781 10.0596 20.5593C9.77848 20.8405 9.39727 20.9987 8.99963 20.9993L4.50019 21C4.30319 21 4.10811 20.9612 3.9261 20.8859C3.74409 20.8105 3.57871 20.7 3.43941 20.5607C3.3001 20.4214 3.18959 20.2561 3.1142 20.0741C3.03881 19.8921 3 19.697 3 19.5V10.8319C3.00016 10.6229 3.04391 10.4162 3.12845 10.2251C3.21299 10.034 3.33645 9.86259 3.49097 9.72188L10.9903 2.90316C11.2658 2.65083 11.6258 2.51086 11.9994 2.51082C12.3729 2.51079 12.733 2.65069 13.0085 2.90297L20.5091 9.72197C20.6636 9.8627 20.787 10.0341 20.8715 10.2252C20.9561 10.4163 20.9998 10.6229 21 10.8319V19.5C21 19.8978 20.842 20.2794 20.5607 20.5607C20.2794 20.842 19.8978 21 19.5 21V20.9999ZM10.4994 13.4993H13.4994C13.8971 13.4997 14.2784 13.6579 14.5596 13.9391C14.8408 14.2203 14.999 14.6016 14.9994 14.9993V19.5002L19.5 19.5V10.8319L11.9994 4.01297L4.5 10.8318V19.4999L8.99944 19.4993V14.9993C8.99988 14.6016 9.15806 14.2203 9.43927 13.9391C9.72048 13.6579 10.1018 13.4997 10.4994 13.4993Z" fill="#171717"/>
</svg>
