<svg width="24" height="24" viewBox="0 0 24 24" fill="none" xmlns="http://www.w3.org/2000/svg">
<path d="M7.50017 11.2492H16.5002C16.6991 11.2492 16.8898 11.3283 17.0305 11.4689C17.1712 11.6096 17.2502 11.8003 17.2502 11.9992C17.2502 12.1982 17.1712 12.3889 17.0305 12.5296C16.8898 12.6702 16.6991 12.7492 16.5002 12.7492H7.50017C7.30126 12.7492 7.11049 12.6702 6.96984 12.5296C6.82919 12.3889 6.75017 12.1982 6.75017 11.9992C6.75017 11.8003 6.82919 11.6096 6.96984 11.4689C7.11049 11.3283 7.30126 11.2492 7.50017 11.2492V11.2492ZM9.74951 15.7496H5.99951C5.00495 15.7496 4.05112 15.3545 3.34786 14.6513C2.6446 13.948 2.24951 12.9942 2.24951 11.9996C2.24951 11.0051 2.6446 10.0512 3.34786 9.34797C4.05112 8.64471 5.00495 8.24962 5.99951 8.24962H9.74951C9.94842 8.24962 10.1392 8.1706 10.2798 8.02995C10.4205 7.8893 10.4995 7.69853 10.4995 7.49962C10.4995 7.30071 10.4205 7.10994 10.2798 6.96929C10.1392 6.82864 9.94842 6.74962 9.74951 6.74962H5.99951C4.60713 6.74962 3.27177 7.30274 2.2872 8.28731C1.30264 9.27187 0.749512 10.6072 0.749512 11.9996C0.749512 13.392 1.30264 14.7274 2.2872 15.7119C3.27177 16.6965 4.60713 17.2496 5.99951 17.2496H9.74951C9.94842 17.2496 10.1392 17.1706 10.2798 17.0299C10.4205 16.8893 10.4995 16.6985 10.4995 16.4996C10.4995 16.3007 10.4205 16.1099 10.2798 15.9693C10.1392 15.8286 9.94842 15.7496 9.74951 15.7496ZM18.0002 6.74962H14.2502C14.0513 6.74962 13.8605 6.82864 13.7198 6.96929C13.5792 7.10994 13.5002 7.30071 13.5002 7.49962C13.5002 7.69853 13.5792 7.8893 13.7198 8.02995C13.8605 8.1706 14.0513 8.24962 14.2502 8.24962H18.0002C18.9947 8.24962 19.9486 8.64471 20.6518 9.34797C21.3551 10.0512 21.7502 11.0051 21.7502 11.9996C21.7502 12.9942 21.3551 13.948 20.6518 14.6513C19.9486 15.3545 18.9947 15.7496 18.0002 15.7496H14.2502C14.0513 15.7496 13.8605 15.8286 13.7198 15.9693C13.5792 16.1099 13.5002 16.3007 13.5002 16.4996C13.5002 16.6985 13.5792 16.8893 13.7198 17.0299C13.8605 17.1706 14.0513 17.2496 14.2502 17.2496H18.0002C19.3926 17.2496 20.7279 16.6965 21.7125 15.7119C22.697 14.7274 23.2502 13.392 23.2502 11.9996C23.2502 10.6072 22.697 9.27187 21.7125 8.28731C20.7279 7.30274 19.3926 6.74962 18.0002 6.74962Z" fill="black"/>
</svg>
