<svg width="24" height="24" viewBox="0 0 24 24" fill="none" xmlns="http://www.w3.org/2000/svg">
<path d="M21.5298 20.4697L17.4778 16.4176C18.9087 14.7134 19.6266 12.5226 19.4817 10.3021C19.3367 8.08149 18.3402 6.0026 16.6998 4.4989C15.0594 2.9952 12.9019 2.18277 10.6772 2.23105C8.45239 2.27933 6.33214 3.18458 4.75856 4.75803C3.18497 6.33148 2.27953 8.45165 2.23106 10.6764C2.18258 12.9012 2.99481 15.0588 4.49837 16.6993C6.00192 18.3397 8.08073 19.3365 10.3013 19.4816C12.5218 19.6268 14.7127 18.9091 16.417 17.4783L20.4691 21.5304C20.6098 21.6711 20.8006 21.7501 20.9995 21.7501C21.1984 21.7501 21.3892 21.6711 21.5298 21.5304C21.6705 21.3898 21.7495 21.199 21.7495 21.0001C21.7495 20.8012 21.6705 20.6104 21.5298 20.4697ZM3.75005 10.875C3.75005 9.46581 4.16793 8.08826 4.95083 6.91656C5.73374 5.74486 6.84651 4.83163 8.14843 4.29236C9.45036 3.75308 10.883 3.61198 12.2651 3.8869C13.6472 4.16182 14.9167 4.84041 15.9132 5.83686C16.9096 6.83331 17.5882 8.10286 17.8631 9.48498C18.1381 10.8671 17.997 12.2997 17.4577 13.6016C16.9184 14.9035 16.0052 16.0163 14.8335 16.7992C13.6618 17.5821 12.2842 18 10.8751 18C8.98604 17.9979 7.17501 17.2465 5.83927 15.9108C4.50354 14.575 3.75219 12.764 3.75005 10.875Z" fill="#171717"/>
</svg>
