<svg width="24" height="24" viewBox="0 0 24 24" fill="none" xmlns="http://www.w3.org/2000/svg">
<path d="M21.5557 6.63956C21.5532 6.63497 21.5513 6.63028 21.5487 6.62578L21.5452 6.62016C21.4109 6.38982 21.2176 6.19947 20.9853 6.06872L12.7354 1.42809C12.5106 1.30263 12.2574 1.23677 12 1.23677C11.7426 1.23677 11.4894 1.30263 11.2646 1.42809L3.01453 6.06872C2.78131 6.20009 2.58751 6.39149 2.45325 6.62306C2.45184 6.62559 2.45006 6.62784 2.44856 6.63047C2.44641 6.6345 2.44472 6.63872 2.44247 6.64284C2.31649 6.86677 2.25021 7.11932 2.25 7.37625V16.6239C2.25019 16.8901 2.32109 17.1514 2.45544 17.3811C2.58979 17.6108 2.78277 17.8007 3.01462 17.9314L11.2647 22.572C11.4725 22.6882 11.7051 22.7532 11.943 22.7616C11.9601 22.7629 11.977 22.7644 11.9944 22.7646H12.0011C12.0247 22.7646 12.048 22.7633 12.0712 22.7611C12.3043 22.7507 12.5317 22.686 12.7354 22.572L20.9854 17.9314C21.2173 17.8007 21.4103 17.6108 21.5446 17.381C21.679 17.1513 21.7499 16.8899 21.75 16.6238V7.37625C21.7498 7.11808 21.6828 6.86434 21.5557 6.63966V6.63956ZM12 2.73553L19.4759 6.94078L16.6053 8.57166L9.04125 4.39978L12 2.73553ZM12.0853 11.1395L4.53553 6.93431L7.50366 5.26472L15.0753 9.44081L12.0853 11.1395ZM3.75 8.21372L11.335 12.4386L11.2612 20.8489L3.75 16.6239V8.21372ZM12.7614 20.8362L12.8352 12.4387L15.8458 10.7283V14.2979C15.8458 14.4968 15.9248 14.6876 16.0655 14.8282C16.2061 14.9689 16.3969 15.0479 16.5958 15.0479C16.7947 15.0479 16.9855 14.9689 17.1261 14.8282C17.2668 14.6876 17.3458 14.4968 17.3458 14.2979V9.87609L20.25 8.22619V16.6238L12.7614 20.8362Z" fill="#171717"/>
</svg>
