<svg width="24" height="24" viewBox="0 0 24 24" fill="none" xmlns="http://www.w3.org/2000/svg">
<path d="M21.2652 6.92419L17.0758 2.73488C16.7242 2.38325 16.2473 2.18571 15.75 2.18571C15.2527 2.18571 14.7758 2.38325 14.4242 2.73488L11.9545 5.20444L11.9544 5.20463L3.17429 13.9848C2.9996 14.1585 2.86111 14.3651 2.76682 14.5927C2.67254 14.8202 2.62433 15.0643 2.62501 15.3106V19.5C2.62558 19.9971 2.8233 20.4737 3.17481 20.8252C3.52632 21.1767 4.0029 21.3744 4.50001 21.375H9.00001C9.29837 21.375 9.58451 21.2565 9.79548 21.0455L21.2653 9.57581C21.6164 9.22391 21.8136 8.7471 21.8136 8.25C21.8136 7.7529 21.6164 7.2761 21.2653 6.92419H21.2652ZM8.53398 19.125H4.87501V15.4659L12.75 7.59094L16.4091 11.25L8.53398 19.125ZM18 9.65906L14.3409 6L15.75 4.59094L19.4091 8.25L18 9.65906Z" fill="#171717"/>
</svg>
