<svg width="24" height="24" viewBox="0 0 24 24" fill="none" xmlns="http://www.w3.org/2000/svg">
<path d="M21.8844 6.45975C21.881 6.45338 21.8783 6.44691 21.8748 6.44053C21.8732 6.43772 21.8713 6.43538 21.8697 6.43266C21.7019 6.14411 21.46 5.90564 21.1691 5.74191L12.9192 1.10128C12.6382 0.94444 12.3218 0.862103 12 0.862103C11.6782 0.862103 11.3618 0.94444 11.0808 1.10128L2.83078 5.74191C2.53834 5.90663 2.29551 6.14688 2.12766 6.43753C2.1255 6.44109 2.12306 6.44428 2.12109 6.44794C2.11781 6.45375 2.11547 6.45975 2.11237 6.46556C1.95701 6.74397 1.8753 7.05743 1.875 7.37625V16.6239C1.87526 16.9566 1.96389 17.2832 2.13183 17.5704C2.29976 17.8575 2.54098 18.0949 2.83078 18.2582L11.0809 22.8988C11.3396 23.0435 11.629 23.1247 11.9253 23.1356C11.9472 23.1371 11.9689 23.1394 11.9911 23.1396H12.0011C12.0305 23.1396 12.0592 23.1374 12.088 23.1353C12.3797 23.1223 12.6643 23.0414 12.9191 22.8988L21.1691 18.2582C21.459 18.0949 21.7002 17.8575 21.8682 17.5703C22.0362 17.2831 22.1248 16.9564 22.125 16.6238V7.37625C22.1247 7.05521 22.0418 6.73965 21.8844 6.45985V6.45975ZM12 3.16575L18.7139 6.94238L16.6026 8.14191L9.81188 4.39659L12 3.16575ZM12.0834 10.7092L5.30325 6.93263L7.50544 5.694L14.3077 9.44559L12.0834 10.7092ZM4.125 8.85188L10.9581 12.6579L10.8917 20.211L4.125 16.4044V8.85188ZM13.1421 20.1919L13.2083 12.6581L15.4708 11.3727V14.298C15.4708 14.5964 15.5893 14.8825 15.8003 15.0935C16.0113 15.3045 16.2974 15.423 16.5958 15.423C16.8942 15.423 17.1803 15.3045 17.3913 15.0935C17.6023 14.8825 17.7208 14.5964 17.7208 14.298V10.0944L19.875 8.87053V16.4046L13.1421 20.1919Z" fill="#171717"/>
</svg>
