<svg width="24" height="24" viewBox="0 0 24 24" fill="none" xmlns="http://www.w3.org/2000/svg">
<path d="M12 1.875C9.99747 1.875 8.0399 2.46882 6.37486 3.58137C4.70981 4.69392 3.41206 6.27523 2.64572 8.12533C1.87939 9.97543 1.67888 12.0112 2.06955 13.9753C2.46023 15.9393 3.42454 17.7435 4.84055 19.1595C6.25656 20.5755 8.06066 21.5398 10.0247 21.9305C11.9888 22.3211 14.0246 22.1206 15.8747 21.3543C17.7248 20.5879 19.3061 19.2902 20.4186 17.6251C21.5312 15.9601 22.125 14.0025 22.125 12C22.122 9.31561 21.0543 6.74204 19.1561 4.84389C17.258 2.94574 14.6844 1.87803 12 1.875ZM12 19.875C10.4425 19.875 8.91993 19.4131 7.62489 18.5478C6.32985 17.6825 5.32049 16.4526 4.72445 15.0136C4.12841 13.5747 3.97246 11.9913 4.27632 10.4637C4.58018 8.93606 5.3302 7.53287 6.43154 6.43153C7.53288 5.3302 8.93607 4.58017 10.4637 4.27632C11.9913 3.97246 13.5747 4.12841 15.0136 4.72445C16.4526 5.32049 17.6825 6.32985 18.5478 7.62488C19.4131 8.91992 19.875 10.4425 19.875 12C19.8726 14.0878 19.0422 16.0895 17.5658 17.5658C16.0895 19.0422 14.0879 19.8726 12 19.875ZM13.4999 16.5C13.4999 16.7967 13.4119 17.0867 13.2471 17.3334C13.0823 17.58 12.848 17.7723 12.5739 17.8858C12.2998 17.9994 11.9982 18.0291 11.7073 17.9712C11.4163 17.9133 11.149 17.7704 10.9393 17.5607C10.7295 17.3509 10.5866 17.0836 10.5287 16.7926C10.4709 16.5017 10.5006 16.2001 10.6141 15.926C10.7276 15.6519 10.9199 15.4176 11.1666 15.2528C11.4132 15.088 11.7032 15 11.9999 15C12.3977 15 12.7793 15.158 13.0606 15.4393C13.3419 15.7206 13.4999 16.1022 13.4999 16.5ZM15.75 10.1255C15.7489 11.1197 15.3534 12.0728 14.6504 12.7759C13.9474 13.4789 12.9942 13.8743 12 13.8755C11.7016 13.8755 11.4155 13.7569 11.2045 13.546C10.9935 13.335 10.875 13.0488 10.875 12.7505C10.875 12.4521 10.9935 12.166 11.2045 11.955C11.4155 11.744 11.7016 11.6255 12 11.6255C12.2967 11.6255 12.5867 11.5375 12.8334 11.3727C13.08 11.2079 13.2723 10.9736 13.3858 10.6995C13.4994 10.4254 13.5291 10.1238 13.4712 9.83283C13.4133 9.54186 13.2704 9.27459 13.0607 9.06481C12.8509 8.85503 12.5836 8.71217 12.2926 8.65429C12.0017 8.59641 11.7001 8.62612 11.426 8.73965C11.1519 8.85318 10.9176 9.04544 10.7528 9.29211C10.588 9.53879 10.5 9.8288 10.5 10.1255C10.5 10.4238 10.3815 10.71 10.1705 10.921C9.95952 11.1319 9.67337 11.2505 9.375 11.2505C9.07664 11.2505 8.79049 11.1319 8.57951 10.921C8.36853 10.71 8.25 10.4238 8.25 10.1255C8.25 9.13091 8.64509 8.17708 9.34835 7.47382C10.0516 6.77056 11.0054 6.37547 12 6.37547C12.9946 6.37547 13.9484 6.77056 14.6517 7.47382C15.3549 8.17708 15.75 9.13091 15.75 10.1255Z" fill="#171717"/>
</svg>
