<svg width="24" height="24" viewBox="0 0 24 24" fill="none" xmlns="http://www.w3.org/2000/svg">
<path d="M20.7804 12.5303L16.8439 16.4678C16.7027 16.6058 16.5128 16.6826 16.3153 16.6816C16.1179 16.6805 15.9288 16.6016 15.7892 16.4619C15.6495 16.3223 15.5706 16.1333 15.5695 15.9358C15.5684 15.7384 15.6451 15.5484 15.7832 15.4072L18.4397 12.75H9.75C9.55109 12.75 9.36032 12.671 9.21967 12.5303C9.07902 12.3897 9 12.1989 9 12C9 11.8011 9.07902 11.6103 9.21967 11.4697C9.36032 11.329 9.55109 11.25 9.75 11.25H18.4397L15.7832 8.59275C15.6451 8.45156 15.5684 8.26163 15.5695 8.06417C15.5706 7.86672 15.6495 7.67767 15.7892 7.53806C15.9288 7.39845 16.1179 7.31953 16.3153 7.31845C16.5128 7.31736 16.7027 7.39418 16.8439 7.53225L20.7804 11.4698C20.921 11.6104 21 11.8011 21 12C21 12.1989 20.921 12.3896 20.7804 12.5303ZM9.75 19.5H4.5V4.5H9.75C9.94891 4.5 10.1397 4.42098 10.2803 4.28033C10.421 4.13968 10.5 3.94891 10.5 3.75C10.5 3.55109 10.421 3.36032 10.2803 3.21967C10.1397 3.07902 9.94891 3 9.75 3H4.5C4.10231 3.00045 3.72104 3.15863 3.43983 3.43983C3.15863 3.72104 3.00045 4.10231 3 4.5V19.5C3.00045 19.8977 3.15863 20.279 3.43983 20.5602C3.72104 20.8414 4.10231 20.9996 4.5 21H9.75C9.94891 21 10.1397 20.921 10.2803 20.7803C10.421 20.6397 10.5 20.4489 10.5 20.25C10.5 20.0511 10.421 19.8603 10.2803 19.7197C10.1397 19.579 9.94891 19.5 9.75 19.5Z" fill="#171717"/>
</svg>
