<svg width="24" height="24" viewBox="0 0 24 24" fill="none" xmlns="http://www.w3.org/2000/svg">
<path d="M10.125 3.375H4.5C4.20163 3.375 3.91548 3.49353 3.7045 3.7045C3.49353 3.91548 3.375 4.20163 3.375 4.5V10.125C3.375 10.4234 3.49353 10.7095 3.7045 10.9205C3.91548 11.1315 4.20163 11.25 4.5 11.25H10.125C10.4234 11.25 10.7095 11.1315 10.9205 10.9205C11.1315 10.7095 11.25 10.4234 11.25 10.125V4.5C11.25 4.20163 11.1315 3.91548 10.9205 3.7045C10.7095 3.49353 10.4234 3.375 10.125 3.375ZM9 9H5.625V5.625H9V9Z" fill="#171717"/>
<path d="M19.5 3.375H13.875C13.5766 3.375 13.2905 3.49353 13.0795 3.7045C12.8685 3.91548 12.75 4.20163 12.75 4.5V10.125C12.75 10.4234 12.8685 10.7095 13.0795 10.9205C13.2905 11.1315 13.5766 11.25 13.875 11.25H19.5C19.7984 11.25 20.0845 11.1315 20.2955 10.9205C20.5065 10.7095 20.625 10.4234 20.625 10.125V4.5C20.625 4.20163 20.5065 3.91548 20.2955 3.7045C20.0845 3.49353 19.7984 3.375 19.5 3.375ZM18.375 9H15V5.625H18.375V9Z" fill="#171717"/>
<path d="M10.125 12.75H4.5C4.20163 12.75 3.91548 12.8685 3.7045 13.0795C3.49353 13.2905 3.375 13.5766 3.375 13.875V19.5C3.375 19.7984 3.49353 20.0845 3.7045 20.2955C3.91548 20.5065 4.20163 20.625 4.5 20.625H10.125C10.4234 20.625 10.7095 20.5065 10.9205 20.2955C11.1315 20.0845 11.25 19.7984 11.25 19.5V13.875C11.25 13.5766 11.1315 13.2905 10.9205 13.0795C10.7095 12.8685 10.4234 12.75 10.125 12.75ZM9 18.375H5.625V15H9V18.375Z" fill="#171717"/>
<path d="M19.5 12.75H13.875C13.5766 12.75 13.2905 12.8685 13.0795 13.0795C12.8685 13.2905 12.75 13.5766 12.75 13.875V19.5C12.75 19.7984 12.8685 20.0845 13.0795 20.2955C13.2905 20.5065 13.5766 20.625 13.875 20.625H19.5C19.7984 20.625 20.0845 20.5065 20.2955 20.2955C20.5065 20.0845 20.625 19.7984 20.625 19.5V13.875C20.625 13.5766 20.5065 13.2905 20.2955 13.0795C20.0845 12.8685 19.7984 12.75 19.5 12.75ZM18.375 18.375H15V15H18.375V18.375Z" fill="#171717"/>
</svg>
