<svg width="24" height="24" viewBox="0 0 24 24" fill="none" xmlns="http://www.w3.org/2000/svg">
<path d="M15.75 9V15C15.75 15.1989 15.671 15.3897 15.5303 15.5303C15.3897 15.671 15.1989 15.75 15 15.75H9C8.80109 15.75 8.61032 15.671 8.46967 15.5303C8.32902 15.3897 8.25 15.1989 8.25 15V9C8.25 8.80109 8.32902 8.61032 8.46967 8.46967C8.61032 8.32902 8.80109 8.25 9 8.25H15C15.1989 8.25 15.3897 8.32902 15.5303 8.46967C15.671 8.61032 15.75 8.80109 15.75 9ZM21 4.5V19.5C20.9996 19.8977 20.8414 20.279 20.5602 20.5602C20.279 20.8414 19.8977 20.9996 19.5 21H4.5C4.10231 20.9996 3.72104 20.8414 3.43983 20.5602C3.15863 20.279 3.00045 19.8977 3 19.5V4.5C3.00045 4.10231 3.15863 3.72104 3.43983 3.43983C3.72104 3.15863 4.10231 3.00045 4.5 3H19.5C19.8977 3.00045 20.279 3.15863 20.5602 3.43983C20.8414 3.72104 20.9996 4.10231 21 4.5V4.5ZM19.5009 19.5L19.5 4.5H4.5V19.5H19.5H19.5009Z" fill="black"/>
</svg>
