<svg width="24" height="24" viewBox="0 0 24 24" fill="none" xmlns="http://www.w3.org/2000/svg">
<path d="M20.2495 4.5H3.74951C3.45114 4.5 3.165 4.61853 2.95402 4.8295C2.74304 5.04048 2.62451 5.32663 2.62451 5.625C2.62451 5.92337 2.74304 6.20952 2.95402 6.4205C3.165 6.63147 3.45114 6.75 3.74951 6.75H4.12451V19.5C4.12508 19.9971 4.32281 20.4737 4.67432 20.8252C5.02582 21.1767 5.50241 21.3744 5.99951 21.375H17.9995C18.4966 21.3744 18.9732 21.1767 19.3247 20.8252C19.6762 20.4737 19.8739 19.9971 19.8745 19.5V6.75H20.2495C20.5479 6.75 20.834 6.63147 21.045 6.4205C21.256 6.20952 21.3745 5.92337 21.3745 5.625C21.3745 5.32663 21.256 5.04048 21.045 4.8295C20.834 4.61853 20.5479 4.5 20.2495 4.5ZM17.6245 19.125H6.37451V6.75H17.6245V19.125ZM7.12489 1.875C7.12489 1.57663 7.24341 1.29048 7.45439 1.0795C7.66537 0.868526 7.95152 0.75 8.24989 0.75H15.7499C16.0483 0.75 16.3344 0.868526 16.5454 1.0795C16.7564 1.29048 16.8749 1.57663 16.8749 1.875C16.8749 2.17337 16.7564 2.45952 16.5454 2.6705C16.3344 2.88147 16.0483 3 15.7499 3H8.24989C7.95152 3 7.66537 2.88147 7.45439 2.6705C7.24341 2.45952 7.12489 2.17337 7.12489 1.875Z" fill="#171717"/>
</svg>
