<svg width="24" height="24" viewBox="0 0 24 24" fill="none" xmlns="http://www.w3.org/2000/svg">
<path d="M20.2495 4.5H3.74951C3.5506 4.5 3.35983 4.57902 3.21918 4.71967C3.07853 4.86032 2.99951 5.05109 2.99951 5.25C2.99951 5.44891 3.07853 5.63968 3.21918 5.78033C3.35983 5.92098 3.5506 6 3.74951 6H4.49951V19.5C4.49996 19.8977 4.65814 20.279 4.93934 20.5602C5.22055 20.8414 5.60182 20.9996 5.99951 21H17.9995C18.3972 20.9996 18.7785 20.8414 19.0597 20.5602C19.3409 20.279 19.4991 19.8977 19.4995 19.5V6H20.2495C20.4484 6 20.6392 5.92098 20.7798 5.78033C20.9205 5.63968 20.9995 5.44891 20.9995 5.25C20.9995 5.05109 20.9205 4.86032 20.7798 4.71967C20.6392 4.57902 20.4484 4.5 20.2495 4.5ZM17.9995 19.5H5.99951V6H17.9995V19.5ZM7.49989 2.25C7.49989 2.05109 7.5789 1.86032 7.71956 1.71967C7.86021 1.57902 8.05097 1.5 8.24989 1.5H15.7499C15.9488 1.5 16.1396 1.57902 16.2802 1.71967C16.4209 1.86032 16.4999 2.05109 16.4999 2.25C16.4999 2.44891 16.4209 2.63968 16.2802 2.78033C16.1396 2.92098 15.9488 3 15.7499 3H8.24989C8.05097 3 7.86021 2.92098 7.71956 2.78033C7.5789 2.63968 7.49989 2.44891 7.49989 2.25Z" fill="#171717"/>
</svg>
