<svg width="24" height="24" viewBox="0 0 24 24" fill="none" xmlns="http://www.w3.org/2000/svg">
<path d="M7.53206 8.21681C7.46243 8.14715 7.40719 8.06446 7.36952 7.97346C7.33184 7.88245 7.31246 7.78492 7.31247 7.68643C7.31249 7.58793 7.33191 7.49041 7.36962 7.39942C7.40733 7.30843 7.46259 7.22575 7.53225 7.15612L11.4698 3.21956C11.6104 3.07896 11.8011 2.99997 12 2.99997C12.1989 2.99997 12.3896 3.07896 12.5303 3.21956L16.4678 7.15612C16.5387 7.22547 16.5951 7.3082 16.6339 7.39952C16.6726 7.49084 16.6929 7.58894 16.6934 7.68814C16.694 7.78733 16.6749 7.88566 16.6372 7.97741C16.5995 8.06917 16.5439 8.15253 16.4738 8.22268C16.4037 8.29283 16.3203 8.34837 16.2286 8.38608C16.1368 8.4238 16.0385 8.44293 15.9393 8.44239C15.8401 8.44184 15.742 8.42162 15.6507 8.3829C15.5594 8.34418 15.4766 8.28773 15.4072 8.21681L12.75 5.56031V14.25C12.75 14.4489 12.671 14.6397 12.5303 14.7803C12.3897 14.921 12.1989 15 12 15C11.8011 15 11.6103 14.921 11.4697 14.7803C11.329 14.6397 11.25 14.4489 11.25 14.25V5.56031L8.59275 8.21681C8.52311 8.28646 8.44042 8.34171 8.34943 8.3794C8.25843 8.41709 8.1609 8.43649 8.06241 8.43649C7.96391 8.43649 7.86638 8.41709 7.77538 8.3794C7.68439 8.34171 7.60171 8.28646 7.53206 8.21681ZM20.25 13.5C20.0511 13.5 19.8603 13.579 19.7197 13.7197C19.579 13.8603 19.5 14.0511 19.5 14.25V19.5H4.5V14.25C4.5 14.0511 4.42098 13.8603 4.28033 13.7197C4.13968 13.579 3.94891 13.5 3.75 13.5C3.55109 13.5 3.36032 13.579 3.21967 13.7197C3.07902 13.8603 3 14.0511 3 14.25V19.5C3.00045 19.8977 3.15863 20.279 3.43983 20.5602C3.72104 20.8414 4.10231 20.9995 4.5 21H19.5C19.8977 20.9995 20.279 20.8414 20.5602 20.5602C20.8414 20.279 20.9996 19.8977 21 19.5V14.25C21 14.0511 20.921 13.8603 20.7803 13.7197C20.6397 13.579 20.4489 13.5 20.25 13.5Z" fill="#171717"/>
</svg>
