<svg width="24" height="24" viewBox="0 0 24 24" fill="none" xmlns="http://www.w3.org/2000/svg">
<path d="M12 2.25C10.3065 2.25045 8.64236 2.69187 7.17129 3.5308C5.70021 4.36972 4.47294 5.57725 3.61027 7.03453C2.74759 8.4918 2.27924 10.1486 2.25133 11.8418C2.22341 13.5351 2.63688 15.2064 3.45104 16.6913L2.64976 19.4959C2.57627 19.7531 2.5729 20.0253 2.64 20.2842C2.7071 20.5432 2.84223 20.7795 3.03138 20.9686C3.22054 21.1578 3.45683 21.2929 3.71579 21.36C3.97474 21.4271 4.24692 21.4237 4.50413 21.3502L7.30876 20.549C8.61209 21.2641 10.0617 21.6718 11.5468 21.7408C13.0318 21.8098 14.513 21.5383 15.877 20.9471C17.241 20.3559 18.4518 19.4606 19.4168 18.3297C20.3818 17.1988 21.0754 15.8622 21.4446 14.4221C21.8137 12.982 21.8488 11.4766 21.5469 10.0209C21.2451 8.5652 20.6143 7.19781 19.703 6.02326C18.7916 4.84871 17.6238 3.89811 16.2887 3.24412C14.9536 2.59014 13.4867 2.2501 12 2.25ZM12 20.25C10.5184 20.251 9.06403 19.8525 7.78998 19.0963C7.70211 19.0441 7.6045 19.0103 7.50313 18.9972C7.40176 18.984 7.29877 18.9917 7.20048 19.0198L4.0921 19.908L4.9801 16.7995C5.00818 16.7013 5.01587 16.5983 5.00272 16.497C4.98956 16.3956 4.95583 16.2981 4.9036 16.2102C3.97441 14.6447 3.58909 12.8157 3.80767 11.0084C4.02624 9.20098 4.83643 7.51664 6.11204 6.21771C7.38764 4.91878 9.05702 4.0782 10.8601 3.82691C12.6633 3.57563 14.4989 3.92774 16.081 4.82841C17.6632 5.72908 18.903 7.12773 19.6074 8.80648C20.3118 10.4852 20.4412 12.3498 19.9755 14.1098C19.5097 15.8697 18.475 17.4263 17.0325 18.5369C15.5899 19.6475 13.8206 20.2498 12 20.25ZM16.9215 13.4128L15.0034 12.3167C14.772 12.1846 14.5096 12.1165 14.2432 12.1194C13.9768 12.1222 13.716 12.1959 13.4874 12.3329L12.3765 12.9996C11.8049 12.6698 11.3303 12.1952 11.0005 11.6236L11.6671 10.5125C11.8041 10.2839 11.8777 10.0231 11.8806 9.7567C11.8834 9.49029 11.8154 9.22793 11.6833 8.99653L10.5872 7.07841C10.4648 6.86492 10.2884 6.68748 10.0755 6.56398C9.8627 6.44049 9.62107 6.3753 9.37501 6.375C8.48202 6.37534 7.62553 6.72943 6.99301 7.35978C6.36048 7.99013 6.00343 8.84539 6.00001 9.73837C5.99848 10.8228 6.21074 11.8968 6.62465 12.8991C7.03857 13.9013 7.64601 14.8122 8.41223 15.5795C9.17846 16.3468 10.0884 16.9555 11.0901 17.3709C12.0918 17.7862 13.1655 18 14.2499 18C14.2539 18 14.2597 18.0022 14.2617 18C15.1547 17.9966 16.0099 17.6395 16.6403 17.007C17.2706 16.3744 17.6247 15.518 17.625 14.625C17.6247 14.3789 17.5595 14.1373 17.436 13.9245C17.3125 13.7116 17.135 13.5352 16.9215 13.4128ZM14.2597 16.5C13.3716 16.5013 12.492 16.3273 11.6714 15.988C10.8507 15.6488 10.105 15.1509 9.47703 14.523C8.84909 13.895 8.35122 13.1493 8.01197 12.3287C7.67271 11.508 7.49874 10.6284 7.50001 9.74034C7.50227 9.255 7.69274 8.78947 8.03132 8.44172C8.3699 8.09398 8.83018 7.89116 9.31529 7.87594L10.3809 9.74062L9.50082 11.2077C9.43858 11.3114 9.40234 11.4287 9.39521 11.5494C9.38807 11.6702 9.41025 11.7909 9.45985 11.9012C9.98688 13.0742 10.9259 14.0132 12.0989 14.5402C12.2092 14.5898 12.3299 14.612 12.4506 14.6048C12.5714 14.5977 12.6886 14.5614 12.7923 14.4992L14.2594 13.6191L16.1242 14.6846C16.109 15.1698 15.9061 15.6301 15.5584 15.9687C15.2106 16.3073 14.745 16.4978 14.2597 16.5Z" fill="black"/>
</svg>
