<svg width="24" height="24" viewBox="0 0 24 24" fill="none" xmlns="http://www.w3.org/2000/svg">
<path d="M12 1.875C10.2545 1.8755 8.53885 2.32709 7.01933 3.18596C5.49982 4.04484 4.22806 5.28183 3.32742 6.77697C2.42678 8.2721 1.92783 9.97463 1.87897 11.7194C1.83011 13.4642 2.23299 15.1919 3.04855 16.7351L2.28917 19.3929C2.19733 19.7144 2.19313 20.0547 2.27702 20.3783C2.3609 20.702 2.52982 20.9974 2.76626 21.2338C3.00269 21.4702 3.29806 21.6391 3.62174 21.723C3.94542 21.8069 4.28563 21.8027 4.60714 21.7108L7.26495 20.9514C8.62386 21.6702 10.1286 22.0702 11.6651 22.121C13.2015 22.1718 14.7294 21.872 16.1328 21.2445C17.5362 20.617 18.7783 19.6781 19.7649 18.4992C20.7515 17.3202 21.4567 15.9321 21.827 14.4401C22.1974 12.948 22.2231 11.3913 21.9023 9.88781C21.5816 8.38434 20.9226 6.97366 19.9756 5.76272C19.0285 4.55178 17.8182 3.57238 16.4363 2.89878C15.0544 2.22518 13.5373 1.87507 12 1.875ZM12 19.875C10.5859 19.8761 9.19774 19.4957 7.98167 18.7741C7.84989 18.6957 7.70347 18.6451 7.55141 18.6253C7.39935 18.6056 7.24486 18.6171 7.09742 18.6593L4.63808 19.3619L5.34064 16.9026C5.38276 16.7552 5.3943 16.6007 5.37457 16.4487C5.35484 16.2967 5.30424 16.1503 5.22589 16.0185C4.33903 14.5241 3.97132 12.7783 4.18004 11.0531C4.38875 9.32794 5.16217 7.72022 6.37982 6.4804C7.59746 5.24059 9.19097 4.43828 10.9121 4.19848C12.6332 3.95867 14.3854 4.29482 15.8955 5.15457C17.4057 6.01432 18.5892 7.34939 19.2615 8.95181C19.9339 10.5542 20.0574 12.334 19.6128 14.014C19.1682 15.6939 18.1805 17.1796 16.8036 18.2397C15.4266 19.2998 13.7377 19.8748 12 19.875ZM16.7147 12.3169L15.5569 11.6222C15.2866 11.4592 14.9795 11.3673 14.6641 11.3552C14.3488 11.3431 14.0355 11.4111 13.7536 11.5529L13.289 11.7853C12.8178 11.5617 12.4383 11.1822 12.2148 10.711L12.4472 10.2463C12.589 9.96441 12.657 9.65115 12.6449 9.33582C12.6327 9.02049 12.5409 8.71339 12.3778 8.44322L11.6831 7.28522C11.5158 7.00823 11.28 6.77899 10.9984 6.61957C10.7168 6.46015 10.3989 6.37593 10.0753 6.375H9.74998C8.86312 6.37327 8.01135 6.72136 7.37953 7.34372C6.74771 7.96607 6.38682 8.81249 6.37517 9.69928C6.36848 10.7376 6.56721 11.767 6.95991 12.7283C7.35261 13.6895 7.93154 14.5636 8.66337 15.3002C9.3952 16.0369 10.2655 16.6215 11.2241 17.0205C12.1828 17.4194 13.2109 17.6249 14.2492 17.625L14.3006 17.6248C15.1874 17.6132 16.0339 17.2523 16.6562 16.6205C17.2786 15.9887 17.6267 15.1369 17.625 14.25V13.9247C17.6241 13.6011 17.5399 13.2832 17.3804 13.0015C17.221 12.7199 16.9917 12.4841 16.7147 12.3169ZM15.375 14.25C15.3781 14.543 15.2656 14.8254 15.0619 15.036C14.8581 15.2466 14.5795 15.3683 14.2865 15.3748C14.2742 15.3749 14.2621 15.375 14.2498 15.3749C13.508 15.3749 12.7736 15.2282 12.0888 14.9433C11.404 14.6583 10.7823 14.2407 10.2595 13.7145C9.73668 13.1883 9.32312 12.5639 9.04261 11.8773C8.76209 11.1906 8.62016 10.4553 8.62498 9.71353C8.63151 9.42055 8.75328 9.14195 8.96388 8.93817C9.17449 8.7344 9.45695 8.62187 9.74998 8.625H9.86305L10.3426 9.42422L9.98698 10.1351C9.86322 10.3826 9.83499 10.6669 9.90767 10.9339C10.1149 11.6891 10.5151 12.3774 11.0689 12.9311C11.6226 13.4849 12.3109 13.885 13.0661 14.0923C13.333 14.1648 13.6172 14.1366 13.8646 14.013L14.5758 13.6574L15.375 14.137V14.25Z" fill="black"/>
</svg>
