<svg width="24" height="24" viewBox="0 0 24 24" fill="none" xmlns="http://www.w3.org/2000/svg">
<path d="M19.2804 18.2197C19.421 18.3603 19.5 18.5511 19.5 18.75C19.5 18.9489 19.421 19.1397 19.2804 19.2803C19.1397 19.421 18.9489 19.5 18.75 19.5C18.5511 19.5 18.3603 19.421 18.2197 19.2803L12 13.0606L5.78036 19.2803C5.63971 19.421 5.44894 19.5 5.25002 19.5C5.0511 19.5 4.86033 19.421 4.71968 19.2803C4.57902 19.1397 4.5 18.9489 4.5 18.75C4.5 18.5511 4.57902 18.3603 4.71968 18.2197L10.9394 12L4.71968 5.78034C4.57902 5.63969 4.5 5.44892 4.5 5.25C4.5 5.05108 4.57902 4.86031 4.71968 4.71966C4.86033 4.579 5.0511 4.49998 5.25002 4.49998C5.44894 4.49998 5.63971 4.579 5.78036 4.71966L12 10.9394L18.2197 4.71966C18.3603 4.579 18.5511 4.49998 18.75 4.49998C18.9489 4.49998 19.1397 4.579 19.2804 4.71966C19.421 4.86031 19.5 5.05108 19.5 5.25C19.5 5.44892 19.421 5.63969 19.2804 5.78034L13.0606 12L19.2804 18.2197Z" fill="#171717"/>
</svg>
