<svg width="24" height="24" viewBox="0 0 24 24" fill="none" xmlns="http://www.w3.org/2000/svg">
<path d="M19.5453 17.9545C19.7535 18.1661 19.8696 18.4513 19.8684 18.7481C19.8672 19.0449 19.7487 19.3292 19.5389 19.539C19.329 19.7489 19.0448 19.8673 18.748 19.8685C18.4512 19.8697 18.166 19.7536 17.9544 19.5455L11.9999 13.591L6.04534 19.5455C5.83378 19.7536 5.54855 19.8697 5.25177 19.8685C4.95499 19.8673 4.67071 19.7489 4.46085 19.539C4.251 19.3292 4.13257 19.0449 4.13136 18.7481C4.13015 18.4513 4.24626 18.1661 4.4544 17.9545L10.4088 12L4.4544 6.04547C4.24626 5.83391 4.13015 5.54868 4.13136 5.2519C4.13257 4.95512 4.251 4.67084 4.46085 4.46098C4.67071 4.25113 4.95499 4.1327 5.25177 4.13149C5.54855 4.13028 5.83378 4.24639 6.04534 4.45453L11.9999 10.409L17.9544 4.45453C18.166 4.24639 18.4512 4.13028 18.748 4.13149C19.0448 4.1327 19.329 4.25113 19.5389 4.46098C19.7487 4.67084 19.8672 4.95512 19.8684 5.2519C19.8696 5.54868 19.7535 5.83391 19.5453 6.04547L13.5909 12L19.5453 17.9545Z" fill="black"/>
</svg>
