<svg width="0" height="0" style="position:absolute"><symbol  viewBox="0 0 24 24" id="ph_caret-double-left" ><path d="M19.28 18.97a.75.75 0 01-1.06 1.06l-7.5-7.5a.749.749 0 010-1.06l7.5-7.5a.75.75 0 111.06 1.06L12.31 12l6.97 6.97zM4.81 12l6.97-6.97a.75.75 0 00-1.06-1.06l-7.5 7.5a.75.75 0 000 1.06l7.5 7.5a.75.75 0 101.06-1.06L4.81 12z" /></symbol><symbol  viewBox="0 0 24 24" id="ph_caret-double-right" ><path d="M13.28 12.53l-7.5 7.5a.75.75 0 11-1.06-1.06L11.69 12 4.72 5.03a.75.75 0 111.06-1.06l7.5 7.5a.75.75 0 010 1.06zm7.5-1.06l-7.5-7.5a.75.75 0 00-1.06 1.06L19.19 12l-6.97 6.97a.749.749 0 00.817 1.223.75.75 0 00.243-.163l7.5-7.5a.75.75 0 000-1.06z" /></symbol><symbol  viewBox="0 0 24 24" id="ph_caret-down" ><path d="M12 17.25a.748.748 0 01-.53-.22l-7.5-7.5a.75.75 0 111.06-1.06L12 15.44l6.97-6.97a.75.75 0 111.06 1.06l-7.5 7.5a.748.748 0 01-.53.22z" /></symbol><symbol  viewBox="0 0 24 24" id="ph_caret-left" ><path d="M15 20.25a.748.748 0 01-.53-.22l-7.5-7.5a.75.75 0 010-1.06l7.5-7.5a.75.75 0 111.06 1.06L8.56 12l6.97 6.97a.75.75 0 01-.53 1.28z" /></symbol><symbol  viewBox="0 0 24 24" id="ph_caret-left-bold" ><path d="M15 20.625a1.12 1.12 0 01-.796-.33l-7.5-7.5a1.125 1.125 0 010-1.59l7.5-7.5a1.125 1.125 0 011.591 1.59L9.091 12l6.704 6.704A1.126 1.126 0 0115 20.625z" /></symbol><symbol  viewBox="0 0 24 24" id="ph_caret-right" ><path d="M9 20.25a.75.75 0 01-.53-1.28L15.44 12 8.47 5.03a.75.75 0 011.06-1.06l7.5 7.5a.75.75 0 010 1.06l-7.5 7.5a.747.747 0 01-.53.22z" /></symbol><symbol  viewBox="0 0 24 24" id="ph_caret-right-bold" ><path d="M9 20.625a1.125 1.125 0 01-.796-1.92L14.91 12 8.204 5.295a1.125 1.125 0 011.591-1.59l7.5 7.5a1.125 1.125 0 010 1.59l-7.5 7.5a1.121 1.121 0 01-.795.33z" /></symbol><symbol  viewBox="0 0 24 24" id="ph_chat-text" ><path d="M20.25 4.5H3.75A1.502 1.502 0 002.25 6v14.89a1.486 1.486 0 00.867 1.36 1.49 1.49 0 001.599-.212l2.976-2.503.097-.035H20.25a1.502 1.502 0 001.5-1.5V6a1.501 1.501 0 00-1.5-1.5zm0 13.5H7.657a.75.75 0 00-.257.045l-.346.126a.75.75 0 00-.225.13L3.75 20.89V6h16.5v12zm-12-7.5A.75.75 0 019 9.75h6a.75.75 0 010 1.5H9a.75.75 0 01-.75-.75zm0 3a.75.75 0 01.75-.75h6a.75.75 0 110 1.5H9a.75.75 0 01-.75-.75z" /></symbol><symbol  viewBox="0 0 24 24" id="ph_check" ><path d="M9.75 18a.748.748 0 01-.53-.22l-5.25-5.25a.75.75 0 111.06-1.06l4.72 4.72 9.97-9.97a.75.75 0 011.06 1.06l-10.5 10.5a.747.747 0 01-.53.22z" /></symbol><symbol  viewBox="0 0 24 24" id="ph_check-square-fill" ><path d="M19.5 3h-15A1.502 1.502 0 003 4.5v15A1.501 1.501 0 004.5 21h15a1.502 1.502 0 001.5-1.5v-15A1.502 1.502 0 0019.5 3zm-2.857 7.292l-5.5 5.25a.749.749 0 01-1.036 0l-2.75-2.625a.75.75 0 111.036-1.084l2.232 2.13 4.982-4.755a.75.75 0 111.036 1.084z" /></symbol><symbol  viewBox="0 0 24 24" id="ph_dots-three-vertical-bold" ><path d="M13.5 18a1.5 1.5 0 11-3 0 1.5 1.5 0 013 0zM12 7.5a1.5 1.5 0 100-3 1.5 1.5 0 000 3zm0 3a1.5 1.5 0 100 3 1.5 1.5 0 000-3z" /></symbol><symbol  viewBox="0 0 24 24" id="ph_eye" ><path d="M23.185 11.695c-.033-.074-.826-1.835-2.592-3.6C18.24 5.741 15.27 4.498 12 4.498c-3.27 0-6.241 1.243-8.593 3.595C1.641 9.86.847 11.621.815 11.695a.75.75 0 000 .61c.033.074.826 1.835 2.592 3.6C5.76 18.256 8.73 19.499 12 19.499c3.27 0 6.241-1.243 8.593-3.594 1.765-1.765 2.56-3.526 2.592-3.6a.75.75 0 000-.61zM12 18c-2.886 0-5.407-1.048-7.494-3.116A12.511 12.511 0 012.34 12c.58-1.06 1.31-2.032 2.167-2.883C6.593 7.048 9.114 5.999 12 5.999s5.407 1.05 7.494 3.118A12.511 12.511 0 0121.66 12c-.676 1.26-3.62 6-9.661 6zM12 7.5a4.5 4.5 0 100 9 4.5 4.5 0 000-9zm0 7.5a3 3 0 110-6 3 3 0 010 6z" /></symbol><symbol  viewBox="0 0 24 24" id="ph_eye-slash" ><path d="M5.055 3.246a.75.75 0 10-1.11 1.009l1.803 1.983C2.344 8.328.88 11.55.815 11.696a.75.75 0 000 .609c.033.074.826 1.835 2.592 3.6C5.76 18.257 8.73 19.5 12 19.5c1.68.01 3.344-.337 4.88-1.016l2.065 2.27a.75.75 0 001.11-1.008l-15-16.5zm4.437 7.11l3.907 4.298a3 3 0 01-3.907-4.298zM12 18c-2.886 0-5.407-1.048-7.494-3.116A12.512 12.512 0 012.339 12c.444-.826 1.856-3.137 4.438-4.63l1.684 1.852a4.499 4.499 0 005.968 6.564l1.38 1.518c-1.216.466-2.507.701-3.81.694zm11.185-5.694c-.04.088-.988 2.191-3.128 4.107a.75.75 0 01-1-1.117A12.527 12.527 0 0021.66 12a12.51 12.51 0 00-2.167-2.883C17.407 7.048 14.886 5.999 12 5.999c-.608 0-1.216.049-1.816.148a.75.75 0 11-.247-1.48A12.564 12.564 0 0112 4.5c3.27 0 6.241 1.244 8.593 3.595 1.765 1.766 2.56 3.527 2.592 3.602a.75.75 0 010 .609zm-10.62-3.252a.75.75 0 01.28-1.473 4.516 4.516 0 013.635 3.998.75.75 0 11-1.493.139 3.01 3.01 0 00-2.422-2.664z" /></symbol><symbol  viewBox="0 0 24 24" id="ph_gear-six" ><path d="M22.262 9.775a.75.75 0 00-.369-.497l-2.229-1.237a8.65 8.65 0 00-.403-.7l.043-2.55a.75.75 0 00-.246-.569 10.418 10.418 0 00-3.854-2.221.75.75 0 00-.615.071l-2.186 1.312a8.636 8.636 0 00-.807-.001L9.408 2.07A.75.75 0 008.793 2a10.42 10.42 0 00-3.85 2.227.75.75 0 00-.246.568l.043 2.549c-.146.226-.28.46-.404.699L2.105 9.28a.75.75 0 00-.37.497 10.42 10.42 0 00.004 4.448.75.75 0 00.369.497l2.229 1.237c.123.24.258.473.403.7l-.043 2.55a.75.75 0 00.246.569A10.42 10.42 0 008.797 22a.75.75 0 00.614-.072l2.186-1.311c.27.012.54.013.808 0l2.187 1.313a.75.75 0 00.615.071 10.42 10.42 0 003.851-2.227.75.75 0 00.246-.568l-.043-2.549c.145-.226.28-.46.404-.698l2.231-1.239a.751.751 0 00.369-.497c.32-1.466.318-2.983-.003-4.448zm-1.398 3.803l-2.13 1.182a.75.75 0 00-.311.33c-.155.32-.334.63-.535.924a.75.75 0 00-.13.436l.04 2.434a8.91 8.91 0 01-2.732 1.581l-2.089-1.253a.75.75 0 00-.441-.105 7.142 7.142 0 01-1.068-.001.75.75 0 00-.443.105l-2.088 1.252a8.911 8.911 0 01-2.735-1.576l.042-2.435a.75.75 0 00-.13-.435 7.141 7.141 0 01-.534-.925.75.75 0 00-.312-.331L3.14 13.579a8.909 8.909 0 01-.003-3.156l2.13-1.182a.75.75 0 00.311-.33c.155-.322.334-.63.535-.925a.75.75 0 00.13-.436l-.04-2.434a8.91 8.91 0 012.732-1.58l2.088 1.253c.133.08.288.116.442.105a7.126 7.126 0 011.068 0 .75.75 0 00.443-.104l2.087-1.253a8.91 8.91 0 012.735 1.576l-.04 2.435a.75.75 0 00.13.435c.2.295.378.604.532.926a.75.75 0 00.313.33l2.128 1.182a8.907 8.907 0 01.003 3.157zM12 6.75a5.25 5.25 0 100 10.5 5.25 5.25 0 000-10.5zm0 9a3.75 3.75 0 110-7.5 3.75 3.75 0 010 7.5z" /></symbol><symbol  viewBox="0 0 24 24" id="ph_gear-six-bold" ><path d="M12 6.75a5.25 5.25 0 100 10.5 5.25 5.25 0 000-10.5zM12 15a3 3 0 110-6 3 3 0 010 6zm10.628-5.305a1.126 1.126 0 00-.553-.745l-2.13-1.182a9.004 9.004 0 00-.307-.532l.04-2.44a1.126 1.126 0 00-.368-.851 10.791 10.791 0 00-3.992-2.301 1.124 1.124 0 00-.921.106l-2.09 1.254a9 9 0 00-.614 0L9.601 1.749a1.125 1.125 0 00-.922-.107c-1.48.473-2.84 1.26-3.989 2.306a1.125 1.125 0 00-.368.852l.041 2.437a9.07 9.07 0 00-.307.531L1.923 8.952a1.125 1.125 0 00-.554.745c-.33 1.519-.33 3.09.003 4.608a1.124 1.124 0 00.554.745l2.13 1.183c.097.18.199.358.307.531l-.041 2.44a1.125 1.125 0 00.369.852 10.792 10.792 0 003.991 2.3 1.125 1.125 0 00.922-.106l2.09-1.254c.204.007.41.007.614 0l2.092 1.256a1.126 1.126 0 00.922.106c1.48-.472 2.84-1.26 3.989-2.306a1.125 1.125 0 00.368-.852l-.041-2.437c.108-.173.21-.35.307-.53l2.133-1.185a1.126 1.126 0 00.553-.745c.331-1.518.33-3.09-.003-4.608zm-2.104 3.642l-1.972 1.095a1.125 1.125 0 00-.467.495 6.76 6.76 0 01-.507.876c-.131.192-.2.42-.196.653l.038 2.254a8.53 8.53 0 01-2.316 1.34l-1.934-1.16a1.124 1.124 0 00-.662-.157 6.764 6.764 0 01-1.012 0 1.125 1.125 0 00-.664.156L8.9 20.05a8.528 8.528 0 01-2.318-1.336l.038-2.255a1.124 1.124 0 00-.195-.652 6.766 6.766 0 01-.506-.876c-.1-.21-.264-.384-.468-.497l-1.97-1.094a8.527 8.527 0 01-.003-2.676l1.972-1.095c.203-.113.366-.285.467-.495.147-.304.316-.597.506-.876.132-.192.2-.42.196-.653L6.581 5.29a8.53 8.53 0 012.316-1.34l1.934 1.16c.199.12.43.175.662.157a6.77 6.77 0 011.012.001c.232.018.464-.037.664-.157l1.933-1.16c.838.32 1.62.772 2.318 1.336l-.038 2.255c-.004.232.064.46.195.652.19.28.36.572.506.877.1.21.264.383.468.496l1.97 1.094c.142.887.143 1.79.003 2.676z" /></symbol><symbol  viewBox="0 0 24 24" id="ph_house" ><path d="M19.5 21H15a1.502 1.502 0 01-1.5-1.5V15h-3v4.5A1.501 1.501 0 019 21H4.5A1.502 1.502 0 013 19.5v-8.668a1.503 1.503 0 01.491-1.11l7.5-6.819a1.494 1.494 0 012.018 0l7.5 6.819a1.503 1.503 0 01.491 1.11V19.5a1.5 1.5 0 01-1.5 1.5zm-9-7.5h3A1.502 1.502 0 0115 15v4.5h4.5v-8.668L12 4.013l-7.5 6.819V19.5H9V15a1.502 1.502 0 011.5-1.5z" /></symbol><symbol  viewBox="0 0 24 24" id="ph_house-bold" ><path d="M19.5 21.375H15a1.877 1.877 0 01-1.876-1.876v-4.125h-2.25V19.5A1.877 1.877 0 019 21.374l-4.5.001A1.876 1.876 0 012.625 19.5v-8.668a1.878 1.878 0 01.614-1.388l7.499-6.818a1.868 1.868 0 012.523 0l7.5 6.818a1.88 1.88 0 01.614 1.388V19.5a1.875 1.875 0 01-1.875 1.875zm-4.126-2.25h3.751v-8.127L11.999 4.52l-7.124 6.478v8.127h3.75v-4.126a1.877 1.877 0 011.874-1.875h3A1.876 1.876 0 0115.374 15v4.125z" /></symbol><symbol  viewBox="0 0 25 25" id="ph_list-bold" ><path d="M21.75 12.125a1.125 1.125 0 01-1.125 1.125h-16.5a1.125 1.125 0 110-2.25h16.5a1.125 1.125 0 011.125 1.125zM4.125 7.25h16.5a1.125 1.125 0 000-2.25h-16.5a1.125 1.125 0 000 2.25zm16.5 9.75h-16.5a1.125 1.125 0 100 2.25h16.5a1.125 1.125 0 100-2.25z" /></symbol><symbol  viewBox="0 0 24 24" id="ph_magnifying-glass" ><path d="M21.53 20.47l-4.052-4.052a8.636 8.636 0 10-1.061 1.06l4.052 4.052a.75.75 0 101.06-1.06zM3.75 10.875A7.125 7.125 0 1110.875 18a7.133 7.133 0 01-7.125-7.125z" /></symbol><symbol  viewBox="0 0 24 24" id="ph_package" ><path d="M21.556 6.64l-.007-.014-.004-.006a1.5 1.5 0 00-.56-.551l-8.25-4.64a1.51 1.51 0 00-1.47 0l-8.25 4.64a1.5 1.5 0 00-.562.554l-.004.007-.007.013a1.498 1.498 0 00-.192.733v9.248a1.502 1.502 0 00.765 1.307l8.25 4.641c.207.116.44.181.678.19l.051.003h.007a1.496 1.496 0 00.734-.193l8.25-4.64a1.501 1.501 0 00.765-1.308V7.376c0-.258-.067-.512-.194-.736zM12 2.736l7.476 4.205-2.87 1.63L9.04 4.4 12 2.736zm.085 8.404l-7.55-4.206 2.969-1.67 7.571 4.177-2.99 1.698zM3.75 8.214l7.585 4.225-.074 8.41-7.511-4.225v-8.41zm9.011 12.622l.074-8.397 3.01-1.71v3.569a.75.75 0 101.5 0V9.876l2.905-1.65v8.398l-7.489 4.212z" /></symbol><symbol  viewBox="0 0 24 24" id="ph_package-bold" ><path d="M21.884 6.46l-.01-.02-.004-.007a1.873 1.873 0 00-.7-.691l-8.25-4.64a1.886 1.886 0 00-1.84 0l-8.25 4.64a1.874 1.874 0 00-.702.696l-.007.01-.009.018a1.873 1.873 0 00-.237.91v9.248a1.878 1.878 0 00.956 1.634l8.25 4.64c.259.146.548.227.844.238l.066.004h.01c.03 0 .058-.003.087-.005.292-.013.576-.094.831-.236l8.25-4.64a1.877 1.877 0 00.956-1.635V7.376c0-.32-.083-.636-.24-.916zM12 3.166l6.714 3.776-2.111 1.2-6.791-3.745L12 3.166zm.083 7.543l-6.78-3.776 2.202-1.239 6.803 3.752-2.225 1.263zM4.125 8.852l6.833 3.806-.066 7.553-6.767-3.807V8.852zm9.017 11.34l.066-7.534 2.263-1.285v2.925a1.125 1.125 0 102.25 0v-4.204l2.154-1.223v7.534l-6.733 3.787z" /></symbol><symbol  viewBox="0 0 24 24" id="ph_plus" ><path d="M21 12a.75.75 0 01-.75.75h-7.5v7.5a.75.75 0 11-1.5 0v-7.5h-7.5a.75.75 0 110-1.5h7.5v-7.5a.75.75 0 111.5 0v7.5h7.5A.75.75 0 0121 12z" /></symbol><symbol  viewBox="0 0 24 24" id="ph_plus-bold" ><path d="M21.375 12a1.125 1.125 0 01-1.125 1.125h-7.125v7.125a1.125 1.125 0 11-2.25 0v-7.125H3.75a1.125 1.125 0 110-2.25h7.125V3.75a1.125 1.125 0 112.25 0v7.125h7.125A1.125 1.125 0 0121.375 12z" /></symbol><symbol  viewBox="0 0 24 24" id="ph_question" ><path d="M12 2.25A9.75 9.75 0 1021.75 12 9.761 9.761 0 0012 2.25zm0 18A8.25 8.25 0 1120.25 12 8.26 8.26 0 0112 20.25zm1.125-3.375a1.125 1.125 0 11-2.25 0 1.125 1.125 0 012.25 0zm2.25-6.75a3.381 3.381 0 01-2.625 3.291v.085a.75.75 0 01-1.5 0v-.75A.75.75 0 0112 12a1.875 1.875 0 10-1.875-1.875.75.75 0 01-1.5 0 3.375 3.375 0 116.75 0z" /></symbol><symbol  viewBox="0 0 24 24" id="ph_question-bold" ><path d="M12 1.875A10.125 10.125 0 1022.125 12 10.136 10.136 0 0012 1.875zm0 18A7.875 7.875 0 1119.875 12 7.884 7.884 0 0112 19.875zm1.5-3.375a1.5 1.5 0 11-3 0 1.5 1.5 0 013 0zm2.25-6.374a3.754 3.754 0 01-3.75 3.75 1.125 1.125 0 010-2.25 1.5 1.5 0 10-1.5-1.5 1.125 1.125 0 01-2.25 0 3.75 3.75 0 117.5 0z" /></symbol><symbol  viewBox="0 0 24 24" id="ph_sign-out" ><path d="M20.78 12.53l-3.936 3.938a.75.75 0 01-1.06-1.06l2.656-2.658H9.75a.75.75 0 110-1.5h8.69l-2.657-2.657a.75.75 0 011.06-1.06l3.937 3.937a.75.75 0 010 1.06zM9.75 19.5H4.5v-15h5.25a.75.75 0 100-1.5H4.5A1.502 1.502 0 003 4.5v15A1.502 1.502 0 004.5 21h5.25a.75.75 0 100-1.5z" /></symbol><symbol  viewBox="0 0 24 24" id="ph_square" ><path d="M19.5 21h-15A1.501 1.501 0 013 19.5v-15A1.502 1.502 0 014.5 3h15A1.502 1.502 0 0121 4.5v15a1.502 1.502 0 01-1.5 1.5zM4.5 4.5v15h15v-15h-15z" /></symbol><symbol  viewBox="0 0 24 24" id="ph_squares-four" ><path d="M10.5 3.75h-6a.75.75 0 00-.75.75v6a.75.75 0 00.75.75h6a.75.75 0 00.75-.75v-6a.75.75 0 00-.75-.75zm-.75 6h-4.5v-4.5h4.5v4.5zm9.75-6h-6a.75.75 0 00-.75.75v6a.75.75 0 00.75.75h6a.75.75 0 00.75-.75v-6a.75.75 0 00-.75-.75zm-.75 6h-4.5v-4.5h4.5v4.5zm-8.25 3h-6a.75.75 0 00-.75.75v6a.75.75 0 00.75.75h6a.75.75 0 00.75-.75v-6a.75.75 0 00-.75-.75zm-.75 6h-4.5v-4.5h4.5v4.5zm9.75-6h-6a.75.75 0 00-.75.75v6a.75.75 0 00.75.75h6a.75.75 0 00.75-.75v-6a.75.75 0 00-.75-.75zm-.75 6h-4.5v-4.5h4.5v4.5z" /></symbol><symbol  viewBox="0 0 24 24" id="ph_squares-four-bold" ><path d="M10.125 3.375H4.5A1.125 1.125 0 003.375 4.5v5.625A1.125 1.125 0 004.5 11.25h5.625a1.125 1.125 0 001.125-1.125V4.5a1.125 1.125 0 00-1.125-1.125zM9 9H5.625V5.625H9V9zM19.5 3.375h-5.625A1.125 1.125 0 0012.75 4.5v5.625a1.125 1.125 0 001.125 1.125H19.5a1.125 1.125 0 001.125-1.125V4.5A1.125 1.125 0 0019.5 3.375zM18.375 9H15V5.625h3.375V9zM10.125 12.75H4.5a1.125 1.125 0 00-1.125 1.125V19.5A1.125 1.125 0 004.5 20.625h5.625A1.125 1.125 0 0011.25 19.5v-5.625a1.125 1.125 0 00-1.125-1.125zM9 18.375H5.625V15H9v3.375zM19.5 12.75h-5.625a1.125 1.125 0 00-1.125 1.125V19.5a1.125 1.125 0 001.125 1.125H19.5a1.125 1.125 0 001.125-1.125v-5.625A1.125 1.125 0 0019.5 12.75zm-1.125 5.625H15V15h3.375v3.375z" /></symbol><symbol  viewBox="0 0 24 24" id="ph_trash-simple" ><path d="M20.25 4.5H3.75a.75.75 0 000 1.5h.75v13.5A1.502 1.502 0 006 21h12a1.502 1.502 0 001.5-1.5V6h.75a.75.75 0 100-1.5zM18 19.5H6V6h12v13.5zM7.5 2.25a.75.75 0 01.75-.75h7.5a.75.75 0 110 1.5h-7.5a.75.75 0 01-.75-.75z" /></symbol><symbol  viewBox="0 0 24 24" id="ph_upload-simple" ><path d="M7.532 8.217a.75.75 0 010-1.06L11.47 3.22a.75.75 0 011.06 0l3.938 3.936a.751.751 0 01-.529 1.286.75.75 0 01-.532-.225L12.75 5.56v8.69a.75.75 0 11-1.5 0V5.56L8.593 8.217a.75.75 0 01-1.06 0zM20.25 13.5a.75.75 0 00-.75.75v5.25h-15v-5.25a.75.75 0 10-1.5 0v5.25A1.502 1.502 0 004.5 21h15a1.502 1.502 0 001.5-1.5v-5.25a.75.75 0 00-.75-.75z" /></symbol><symbol  viewBox="0 0 24 24" id="ph_x-bold" ><path d="M19.545 17.954a1.125 1.125 0 01-1.59 1.591L12 13.591l-5.955 5.955a1.125 1.125 0 01-1.59-1.591L10.408 12 4.454 6.045a1.125 1.125 0 011.591-1.59L12 10.409l5.954-5.954a1.125 1.125 0 011.591 1.59L13.591 12l5.954 5.954z" /></symbol></svg>